<svg id="svg" version="1.1" viewBox="0 0 300 300" width="300" height="300" xmlns="http://www.w3.org/2000/svg"><svg xmlns="http://www.w3.org/2000/svg"><defs><clipPath id="clip-1"><rect x="0" y="0" transform="scale(0.14648,0.14648)" width="2048" height="2048" fill="none"/></clipPath><linearGradient x1="28.59507" y1="165.2417" x2="29.29878" y2="165.23145" gradientUnits="userSpaceOnUse" id="color-1"><stop offset="0" stop-color="#2d5f5d"/><stop offset="1" stop-color="#2f9281"/></linearGradient><linearGradient x1="131.09619" y1="115.86152" x2="226.44434" y2="28.43643" gradientUnits="userSpaceOnUse" id="color-2"><stop offset="0" stop-color="#ffc722"/><stop offset="1" stop-color="#ffeb18"/></linearGradient><linearGradient x1="66.87305" y1="196.05762" x2="112.76309" y2="252.38965" gradientUnits="userSpaceOnUse" id="color-3"><stop offset="0" stop-color="#3dcf57"/><stop offset="1" stop-color="#16b5b4"/></linearGradient><linearGradient x1="84.41499" y1="213.89502" x2="125.41348" y2="250.28906" gradientUnits="userSpaceOnUse" id="color-4"><stop offset="0" stop-color="#fac020"/><stop offset="1" stop-color="#ffad2c"/></linearGradient><linearGradient x1="88.9062" y1="234.11719" x2="86.44395" y2="233.4375" gradientUnits="userSpaceOnUse" id="color-5"><stop offset="0" stop-color="#358d73"/><stop offset="1" stop-color="#3a755e"/></linearGradient><linearGradient x1="45.42114" y1="270.80713" x2="47.7145" y2="270.06592" gradientUnits="userSpaceOnUse" id="color-6"><stop offset="0" stop-color="#278394"/><stop offset="1" stop-color="#2a979c"/></linearGradient><linearGradient x1="184.88818" y1="218.42871" x2="182.3335" y2="287.50781" gradientUnits="userSpaceOnUse" id="color-7"><stop offset="0" stop-color="#3ace58"/><stop offset="1" stop-color="#19a2b7"/></linearGradient><linearGradient x1="119.40601" y1="266.48145" x2="121.47173" y2="267.48193" gradientUnits="userSpaceOnUse" id="color-8"><stop offset="0" stop-color="#165c7e"/><stop offset="1" stop-color="#388e65"/></linearGradient><linearGradient x1="208.79883" y1="242.37305" x2="213.73975" y2="250.18359" gradientUnits="userSpaceOnUse" id="color-9"><stop offset="0" stop-color="#2bde5c"/><stop offset="1" stop-color="#44aa76"/></linearGradient><linearGradient x1="214.49707" y1="150.23438" x2="200.95898" y2="176.71582" gradientUnits="userSpaceOnUse" id="color-10"><stop offset="0" stop-color="#ffe715"/><stop offset="1" stop-color="#ffa82c"/></linearGradient><linearGradient x1="225.89209" y1="193.20703" x2="197.21777" y2="215.9707" gradientUnits="userSpaceOnUse" id="color-11"><stop offset="0" stop-color="#7ee71d"/><stop offset="1" stop-color="#27ce39"/></linearGradient><linearGradient x1="149.62061" y1="228.27979" x2="146.38169" y2="255.77783" gradientUnits="userSpaceOnUse" id="color-12"><stop offset="0" stop-color="#ffc21c"/><stop offset="1" stop-color="#ffa031"/></linearGradient></defs><g clip-path="url(#clip-1)" fill="none" fill-rule="nonzero" stroke="none" stroke-width="1" stroke-linecap="butt" stroke-linejoin="miter" stroke-miterlimit="10" stroke-dasharray="" stroke-dashoffset="0" font-family="none" font-weight="none" font-size="none" text-anchor="none" style="mix-blend-mode: normal"><path d="M121.31719,27.78442c1.68296,-0.32959 9.4875,-0.50112 11.29805,-0.35566c-3.33589,2.28823 -4.51597,4.04883 -7.16587,6.9772c-9.2165,12.91523 -11.29995,24.31509 -13.67739,39.71572c-0.4481,2.90347 -1.2041,8.03892 -2.08652,10.77041c-4.24204,18.57905 -12.2499,32.09209 -28.7354,42.20449c-8.51616,5.22393 -16.52314,7.754 -26.19214,9.94805c0.00864,-1.35 0.51504,-3.36372 0.80757,-4.78901c0.3731,-2.41465 0.94204,-4.99307 1.5123,-7.36538c1.25391,-5.04668 3.78105,-14.78423 5.95679,-19.60093c0.07485,-0.49233 1.79824,-4.90869 2.05796,-5.54312c4.54922,-11.10864 10.5457,-21.42861 17.51792,-31.18359c1.67666,-2.3458 3.48413,-4.47026 5.12256,-6.75762l0.55122,-0.67515c0.9019,-1.14126 3.98481,-4.14756 4.20674,-5.02397c-0.95947,-0.04863 -7.17524,5.33291 -8.33994,6.375c-18.923,16.93052 -33.71631,45.79072 -37.27852,70.92935c-1.72295,11.22583 -2.1271,22.34224 -0.57905,33.5688c0.41953,3.04248 0.85269,7.0415 1.74946,9.96387c1.74668,8.12402 5.08022,16.46045 8.55981,23.98535c0.78896,1.70508 1.70347,3.28271 2.60801,4.92041c0.23936,0.43213 1.22886,2.09912 1.36377,2.4668c0.39053,0.58447 0.81123,1.31543 1.34004,1.74609c-0.58945,0.60498 -2.24971,2.26611 -2.92295,2.69678c-3.39697,3.36475 -9.59297,9.54785 -11.91782,13.5542c-1.36743,-0.11572 -1.98633,-1.91748 -2.68711,-2.96631c-0.57612,-1.20117 -1.44741,-2.32031 -1.99424,-3.61084c-0.84902,-1.18359 -2.03804,-3.80566 -2.7085,-5.14307c-3.15732,-6.29883 -5.16372,-12.06445 -7.06772,-18.78955c-0.61011,-1.09131 -1.71416,-6.57422 -2.04038,-8.1167c-0.10679,-0.5918 -0.10049,-1.32861 -0.22412,-1.98047c-0.49497,-2.61621 -0.86382,-5.06543 -1.13555,-7.71533c-0.89956,-4.35937 -1.32363,-21.47314 -0.52441,-25.82959c0.03237,-1.76807 1.37271,-11.33042 1.86372,-12.82617c0.35522,-3.07368 1.62715,-6.08789 1.7562,-8.95312c0.04673,-1.03828 -1.51187,-4.38867 -1.71899,-6.06519c-0.32227,-2.6083 -1.38428,-5.61035 -1.55303,-8.28882c-0.34292,-5.446 -0.64629,-11.63525 -0.05801,-17.05869c0.01919,-0.88916 0.26982,-1.98721 0.398,-2.88105c2.88896,-20.16167 15.52749,-37.53823 32.19932,-48.779c2.45815,-1.65762 6.3958,-4.43306 9.18472,-5.48657c0.65186,0.07412 4.21348,-1.79019 4.97681,-2.16782c6.63062,-3.28081 13.99395,-5.15244 20.93745,-7.45723c0.24243,-0.1292 0.404,-0.12085 0.69565,-0.17095c1.16895,0.80493 2.24868,-0.64087 3.59502,-0.70166c0.60762,-0.02739 0.87686,0.19878 1.49985,-0.19497l0.0189,-0.3416c0.90352,-0.08115 3.63882,-0.64966 4.64473,-0.85107c3.78911,-0.75894 7.33052,-1.36494 11.19771,-1.62686c0.99551,-0.06753 2.20649,-0.3082 3.12627,-0.31099z" fill="#43da2b"/><path d="M43.86987,80.62617c1.01265,-1.10479 1.37681,-3.45308 2.81704,-4.45898c0.61274,-0.42817 1.04956,-0.94146 1.75635,-1.38486c0.17256,0.63501 -0.24478,0.67969 0.03984,0.86748c0.50054,-0.44253 1.58936,-2.10352 1.8564,-2.71904l-0.11104,-0.05405l-0.9687,0.81387l-0.12817,-0.11733c0.7043,-1.76001 3.02432,-3.60308 4.73979,-4.36128c1.30386,-0.57642 1.90283,-0.49087 3.27817,-0.36563c1.77319,2.29805 6.95522,0.8001 5.96206,6.94233c-0.1229,0.75981 -2.03423,4.14463 -2.41714,5.10718c-3.11191,3.26543 -4.86826,6.53687 -7.16851,10.38604c-5.47705,9.17563 -9.54858,19.12017 -12.0791,29.50225c-0.49453,1.94604 -1.98208,6.68218 -1.80937,8.59175l0.11016,0.07866l0.02153,-0.23481l0.05801,-0.62681c0.09521,-1.10186 1.83896,-8.54209 2.20957,-8.9729c0.98188,0.75981 -1.02905,5.14585 -0.51855,6.70327c0.44209,1.34868 -0.23115,4.55801 1.96348,4.8085c0.45425,-0.1749 0.78999,-0.29912 0.94937,-0.86235c0.57891,-2.04404 2.99268,-4.07974 3.04453,-6.03823c0.01553,-0.58477 0.02695,-0.75806 0.30762,-1.22461l0.35815,-0.23145l0.29209,0.10913l0.27158,-0.26016c0.0334,0.70474 -1.275,5.98579 -1.46045,7.13057c-0.07061,0.4355 -0.48105,2.99004 -0.58184,3.55796c0.11543,0.11206 0.046,0.07837 0.20977,0.09756c-1.72295,11.22583 -2.1271,22.34224 -0.57905,33.5688c0.41953,3.04248 0.85269,7.0415 1.74946,9.96387c1.74668,8.12402 5.08022,16.46045 8.55981,23.98535c0.78896,1.70508 1.70347,3.28271 2.60801,4.92041c0.23936,0.43213 1.22886,2.09912 1.36377,2.4668c0.39053,0.58447 0.81123,1.31543 1.34004,1.74609c-0.58945,0.60498 -2.24971,2.26611 -2.92295,2.69678c-3.39697,3.36475 -9.59297,9.54785 -11.91782,13.5542c-1.36743,-0.11572 -1.98633,-1.91748 -2.68711,-2.96631c-0.57612,-1.20117 -1.44741,-2.32031 -1.99424,-3.61084c-0.84902,-1.18359 -2.03804,-3.80566 -2.7085,-5.14307c-3.15732,-6.29883 -5.16372,-12.06445 -7.06772,-18.78955c-0.61011,-1.09131 -1.71416,-6.57422 -2.04038,-8.1167c-0.10679,-0.5918 -0.10049,-1.32861 -0.22412,-1.98047c-0.49497,-2.61621 -0.86382,-5.06543 -1.13555,-7.71533c-0.89956,-4.35937 -1.32363,-21.47314 -0.52441,-25.82959c0.03237,-1.76807 1.37271,-11.33042 1.86372,-12.82617c0.35522,-3.07368 1.62715,-6.08789 1.7562,-8.95312c0.04673,-1.03828 -1.51187,-4.38867 -1.71899,-6.06519c-0.32227,-2.6083 -1.38428,-5.61035 -1.55303,-8.28882c-0.34292,-5.446 -0.64629,-11.63525 -0.05801,-17.05869c0.05815,0.69375 0.04819,1.26885 0.32959,1.89829l0.01846,0.1708l0.03193,0.26426c0.08481,0.78545 0.26528,1.58174 1.00444,2.03145c1.05117,0.6394 2.8415,0.58931 3.96709,0.17827c0.69448,-0.25371 1.2397,-0.74063 1.98516,-0.90703c0.64292,0.86221 -0.86484,2.5853 -0.47344,3.55356c0.77051,-2.0729 1.08135,-4.73979 1.42427,-6.9167c1.07739,-6.84302 3.86807,-12.38569 6.60073,-18.61538z" fill="#33cd6a"/><path d="M30.55547,139.33447c0.4062,-0.59429 1.52944,-5.74907 1.71782,-6.75996l0.10444,0.00381c-0.0457,3.10532 -1.37666,7.17612 -1.80601,10.29478c-0.01479,0.10723 0.8606,2.53066 0.90073,3.35186c0.12495,2.5563 0.6438,5.05825 0.86616,7.65688c1.75679,20.5166 8.77896,40.979 20.48804,57.9624c0.71074,1.03125 1.35674,1.98926 2.3291,2.78027c0.6479,-0.09668 0.48779,-0.85547 1.02437,-0.56982c1.49722,-1.47217 3.49702,-2.16943 5.01533,-3.64453c0.50713,-0.49365 -0.63867,-0.98437 -0.62095,-2.09473c0.39053,0.58447 0.81123,1.31543 1.34004,1.74609c-0.58945,0.60498 -2.24971,2.26611 -2.92295,2.69678c-3.39697,3.36475 -9.59297,9.54785 -11.91782,13.5542c-1.36743,-0.11572 -1.98633,-1.91748 -2.68711,-2.96631c-0.57612,-1.20117 -1.44741,-2.32031 -1.99424,-3.61084c-0.84902,-1.18359 -2.03804,-3.80566 -2.7085,-5.14307c-3.15732,-6.29883 -5.16372,-12.06445 -7.06772,-18.78955c-0.61011,-1.09131 -1.71416,-6.57422 -2.04038,-8.1167c-0.10679,-0.5918 -0.10049,-1.32861 -0.22412,-1.98047c-0.49497,-2.61621 -0.86382,-5.06543 -1.13555,-7.71533c-0.89956,-4.35937 -1.32363,-21.47314 -0.52441,-25.82959c0.03237,-1.76807 1.37271,-11.33042 1.86372,-12.82617z" fill="#1dada4"/><path d="M28.69175,152.16064c0.15674,0.94189 -0.04951,2.04492 0.17373,2.50635l0.17944,0.12598c0.41426,-0.50684 0.37925,-4.28027 0.7002,-4.55566c0.56074,1.18359 -0.52061,6.03223 -0.54697,7.4502c-0.09375,5.06982 -0.0646,10.1792 -0.00234,15.24902c0.01187,0.96387 0.57422,1.53809 0.55913,2.75684c-0.59487,0.84961 -0.33472,1.35352 -0.53877,2.29688c-0.89956,-4.35937 -1.32363,-21.47314 -0.52441,-25.82959z" fill="url(#color-1)"/><path d="M32.61621,195.80273c0.77183,0.84375 0.77856,1.604 1.04663,2.58691c0.54155,1.98633 3.94922,12.45996 5.32456,13.30518c-0.14121,-1.59668 -3.25796,-7.82227 -3.03823,-8.79346c0.22573,0.21533 2.75903,7.80176 3.46611,8.74951c0.22515,0.30176 1.68369,3.85986 1.83926,4.37842l-0.06299,0.10254c-0.41982,-0.82764 -0.83247,-1.95264 -1.34341,-2.65137c-0.61934,1.04004 2.60229,4.68311 2.54429,6.25488c-0.84902,-1.18359 -2.03804,-3.80566 -2.7085,-5.14307c-3.15732,-6.29883 -5.16372,-12.06445 -7.06772,-18.78955z" fill="#2b7385"/><path d="M29.21616,177.99023c0.20405,-0.94336 -0.0561,-1.44727 0.53877,-2.29687c0.0375,4.6084 1.3812,7.61865 0.8209,11.99268c-0.10679,-0.5918 -0.10049,-1.32861 -0.22412,-1.98047c-0.49497,-2.61621 -0.86382,-5.06543 -1.13555,-7.71533z" fill="#358977"/><path d="M60.57451,208.31543c0.39053,0.58447 0.81123,1.31543 1.34004,1.74609c-0.58945,0.60498 -2.24971,2.26611 -2.92295,2.69678c-1.30298,0.02344 -4.62583,3.91992 -5.82876,4.91895c-0.05654,-0.80566 2.43457,-2.84766 3.01729,-3.62256c1.49722,-1.47217 3.49702,-2.16943 5.01533,-3.64453c0.50713,-0.49365 -0.63867,-0.98437 -0.62095,-2.09473z" fill="#358977"/><path d="M103.09717,35.07876l0.28916,-0.06533c0.76465,-0.18003 2.69121,-0.67661 3.11016,-1.32129l-0.03779,-0.23481l-0.23979,0.08159l-0.38188,-0.43594c-0.14282,0.35024 -0.09946,0.45366 -0.31641,0.55957c-0.13564,-0.56499 -0.14604,-0.53613 -0.00688,-1.09292c0.65054,-0.82192 1.21611,-0.36563 2.15464,-0.88301c1.02627,0.21548 1.01558,0.31479 2.11597,0.28359l0.11484,0.11675l-0.16055,0.27261c0.98818,-0.20903 0.19922,0.47739 0.92256,0.26133c0.39185,-0.11719 0.91802,-0.15557 1.3251,-0.22383l0.10547,0.10474c-0.23115,0.26191 -0.09082,0.18809 -0.37603,0.24712l-0.48091,0.10078c-1.44917,0.29927 -2.78013,1.15635 -4.47598,1.52549c-1.83677,0.39976 -4.4209,1.55259 -6.23789,2.2188c-10.61396,3.8915 -22.57192,9.19585 -31.76646,15.8436l-0.16055,0.14941c-0.61816,0.56675 -2.07422,1.5813 -2.80503,2.13516c-1.53662,1.16426 -3.03589,2.37729 -4.49531,3.63706c-5.86611,5.08564 -10.95571,11.00303 -15.10693,17.56362c-0.75322,1.18579 -2.05298,3.25796 -2.55264,4.52695l-0.07881,0.13257c-1.14668,1.96655 -2.04946,4.21611 -2.92295,6.31333c-0.53848,1.29302 -1.05586,2.61489 -1.56885,3.90835c-1.35,3.40444 -1.68413,7.11973 -2.48335,10.67139c-0.05815,0.25811 -1.22563,0.87437 -1.51143,0.94907c-1.01528,0.35244 -1.93066,-0.61509 -2.92383,-0.76787c-0.4311,-0.06636 -1.18594,0.00615 -1.64795,0.04438l-0.5502,-1.14653c-0.39829,-0.00015 -0.20918,-0.01377 -0.63545,0.31245c-0.2814,-0.62944 -0.27144,-1.20454 -0.32959,-1.89829c0.01919,-0.88916 0.26982,-1.98721 0.398,-2.88105c2.88896,-20.16167 15.52749,-37.53823 32.19932,-48.779c2.45815,-1.65762 6.3958,-4.43306 9.18472,-5.48657c0.65186,0.07412 4.21348,-1.79019 4.97681,-2.16782c6.63062,-3.28081 13.99395,-5.15244 20.93745,-7.45723c-0.64746,0.71279 -1.16323,0.60747 -1.85068,1.11592l0.37778,-0.0208l0.15732,0.3082c1.01543,-0.54009 2.44966,-0.97676 3.55415,-1.37197c0.33618,0.19937 0.35698,0.22383 0.64351,0.49365c0.8376,0.02593 2.19683,-0.01406 2.84927,0.47227c0.03486,0.32607 -0.00352,0.21035 0.08613,0.38276c0.41191,-0.14238 0.66167,-0.32783 0.95728,-0.19819c-0.26675,0.70137 -0.47124,-0.00278 -0.41221,0.64219l0.61318,-0.13242l0.08145,0.13403c-0.21152,0.35698 -0.41499,0.70576 -0.63794,1.05615z" fill="#50e519"/><path d="M74.77192,117.70474c0.14707,-0.28315 4.29814,-3.15703 4.86211,-3.54038c2.58662,-1.75811 4.67388,-3.80698 6.72041,-6.15396c4.02524,-4.64678 7.34971,-9.85664 9.86807,-15.46479c1.0437,-2.27095 1.93638,-4.61616 3.02534,-6.86323c0.28813,-0.59487 2.73311,-2.38975 3.37236,-2.84268c1.17583,-0.83291 3.13506,0.50845 4.40054,0.09111c0.9895,-0.32637 1.47437,0.04453 2.43545,-0.5915l0.23906,-0.16113c0.40576,0.31655 -0.22881,1.81436 -0.00981,2.71392c-4.24204,18.57905 -12.2499,32.09209 -28.7354,42.20449c-8.51616,5.22393 -16.52314,7.754 -26.19214,9.94805c0.00864,-1.35 0.51504,-3.36372 0.80757,-4.78901c0.3731,-2.41465 0.94204,-4.99307 1.5123,-7.36538c0.60908,-0.52119 4.06216,-1.07944 5.0915,-1.35c2.75244,-0.72349 10.93125,-3.82822 12.60264,-5.8355z" fill="#28bd8c"/><path d="M102.19966,104.18613l0.07793,0.06445c-0.08042,0.55474 -1.04971,2.077 -1.35308,2.58486c-8.54048,14.30229 -23.74907,23.35342 -39.52427,27.63135c-2.01958,0.54771 -3.38643,1.88423 -5.89819,1.73057l-0.16714,-0.20566c0.14165,-0.5748 0.27861,-1.15063 0.41089,-1.72749l0.15381,0.81064c0.14312,-0.14722 0.09653,-0.27744 0.13125,-0.57788l0.03252,0.4667l0.10972,0.01172l0.01245,0.20024c0.04482,0.07969 0.08965,0.15923 0.13447,0.23892c14.3647,-3.31729 28.35029,-9.70078 38.22539,-20.96528c1.50117,-1.73276 2.90845,-3.54478 4.21553,-5.42827c0.7106,-1.03931 1.43599,-2.37568 2.19346,-3.32036c-0.34409,0.75469 -0.63662,1.38823 -1.03242,2.11963c1.18242,-1.34268 1.50571,-2.01226 2.27769,-3.63413z" fill="#366263"/><path d="M57.07778,124.89023c1.25391,-5.04668 3.78105,-14.78423 5.95679,-19.60093c-0.07588,1.7748 -5.19551,14.9127 -4.60122,15.67104c0.28931,-0.3624 0.11455,-0.22646 0.55459,-0.40928c0.49614,0.56147 1.3248,1.51216 2.17002,1.64883c0.59268,0.09595 1.70215,0.49453 2.32793,0.61187c2.11274,-0.74473 5.33335,-1.86826 7.30166,-2.86216c1.402,-0.70796 2.92207,-1.89419 3.98438,-2.24487c-1.67139,2.00728 -9.8502,5.11201 -12.60264,5.8355c-1.02935,0.27056 -4.48242,0.82881 -5.0915,1.35z" fill="#33cd6a"/><path d="M121.31719,27.78442c1.68296,-0.32959 9.4875,-0.50112 11.29805,-0.35566c-3.33589,2.28823 -4.51597,4.04883 -7.16587,6.9772c0.45791,-1.9626 3.80039,-4.14316 4.275,-5.45391c-0.63179,-1.08325 -4.34443,-0.90981 -5.46167,-0.75864c0.60894,0.0917 3.26514,0.26221 3.54229,0.66812c-1.49927,0.30015 -5.61621,0.35332 -6.97822,-0.25825c0.52075,-0.42964 1.61924,-0.69683 2.21748,-0.32915l0.08525,-0.15264l-0.12407,-0.18237c-0.29502,-0.07236 -0.97969,0.11792 -1.54937,0.05977z" fill="#89ea2c"/><path d="M111.1834,123.24814c0.35229,-2.20679 0.88169,-4.42002 1.33975,-6.62798c4.8561,-23.40688 9.10928,-48.40166 21.78721,-69.02622c11.0521,-17.97935 27.48164,-31.57676 48.22236,-36.16586c19.66113,-4.35025 43.78418,1.18553 53.23535,20.60571c0.59912,1.23354 1.32715,2.79229 1.63477,4.10684c1.81934,4.42339 2.28516,10.44741 1.78125,15.2354c-0.09375,0.87847 -0.14209,1.66099 -0.10547,2.54502c-0.15234,1.16455 -0.30469,1.86636 -0.5874,3.0126c-0.2417,1.04443 -0.42627,1.92876 -0.92725,2.89351c-1.7417,6.97295 -9.09229,14.75376 -15.0835,18.29824c-8.1665,4.83076 -18.22852,6.4645 -27.47314,4.30371c-1.36963,-0.32036 -9.84375,-3.24126 -10.28613,-4.43687c0.88477,-0.68247 5.36865,-1.39468 6.79541,-1.80205c8.44482,-2.41172 16.05908,-8.89087 17.31445,-17.9272c1.15283,-8.3001 -3.479,-15.37939 -12.06738,-16.22974c-6.87891,-0.68115 -13.66846,2.47339 -18.81592,6.86484c-14.05957,12.23042 -18.99756,34.57485 -23.24414,52.00972c-1.03271,4.24233 -2.3042,9.57598 -2.77881,13.65396c-2.27637,0.65024 -5.0083,1.08984 -7.36143,1.53765c-3.5105,0.70063 -7.03403,1.33403 -10.56885,1.8999c-0.89326,0.19175 -1.55918,0.32358 -2.46489,0.44062c-6.52603,1.76265 -13.59814,2.98784 -20.34624,4.8082z" fill="url(#color-2)"/><path d="M111.1834,123.24814c0.35229,-2.20679 0.88169,-4.42002 1.33975,-6.62798c4.8561,-23.40688 9.10928,-48.40166 21.78721,-69.02622c11.0521,-17.97935 27.48164,-31.57676 48.22236,-36.16586c19.66113,-4.35025 43.78418,1.18553 53.23535,20.60571c0.59912,1.23354 1.32715,2.79229 1.63477,4.10684c1.81934,4.42339 2.28516,10.44741 1.78125,15.2354c-0.09375,0.87847 -0.14209,1.66099 -0.10547,2.54502c-0.15234,1.16455 -0.30469,1.86636 -0.5874,3.0126c-0.2417,1.04443 -0.42627,1.92876 -0.92725,2.89351c-0.30762,-2.34097 0.08789,-7.7354 0.06006,-10.43584c-0.5625,-5.2689 -1.10889,-5.34668 -2.56494,-9.97778c-0.55078,-0.84214 -1.37695,-2.50107 -1.979,-3.48018c-2.30127,-3.74517 -4.41357,-6.13052 -7.73877,-8.93203c-3.26367,-2.95693 -8.91504,-5.59731 -13.10449,-7.02173c-18.65332,-6.34225 -38.87988,2.77515 -51.41309,16.86797c-18.81475,21.15674 -24.31948,50.56333 -28.94736,77.60273c-0.12583,0.73477 -0.29854,1.91235 -0.31494,2.64243c-0.00762,0.37998 -0.0022,0.98672 -0.03179,1.34722c-6.52603,1.76265 -13.59814,2.98784 -20.34624,4.8082z" fill="#50e519"/><path d="M237.40283,36.14063c1.81934,4.42339 2.28516,10.44741 1.78125,15.2354c-0.09375,0.87847 -0.14209,1.66099 -0.10547,2.54502c-0.15234,1.16455 -0.30469,1.86636 -0.5874,3.0126c-0.2417,1.04443 -0.42627,1.92876 -0.92725,2.89351c-0.30762,-2.34097 0.08789,-7.7354 0.06006,-10.43584c-0.5625,-5.2689 -1.10889,-5.34668 -2.56494,-9.97778c0.04541,0.02446 0.09082,0.04878 0.13477,0.0731c1.90137,3.63149 2.50928,7.84966 2.7832,11.85527c0.27979,0.32036 0.37354,0.46553 0.71338,0.72627c-0.07764,-1.55962 0.18457,-2.50225 -0.10254,-4.16895c0.0293,-1.26094 0.20654,-2.50781 0.16113,-3.76875c-0.09375,-2.59014 -1.22461,-5.50415 -1.34619,-7.98984z" fill="#89ea2c"/><path d="M131.56143,117.09272c0.01641,-0.73008 0.18911,-1.90767 0.31494,-2.64243c4.62788,-27.0394 10.13262,-56.446 28.94736,-77.60273c12.5332,-14.09282 32.75977,-23.21021 51.41309,-16.86797c4.18945,1.42441 9.84082,4.06479 13.10449,7.02173l-0.07178,0.14253c0.13184,0.33589 2.26758,2.23975 2.74219,2.71465l-0.07324,0.09141c-2.17969,-1.83428 -4.16162,-3.37764 -6.60205,-4.86313c-0.83057,-0.50508 -2.13867,-0.89399 -2.51074,-1.16558l0.52588,-0.1248c-0.33984,-0.30762 -7.74463,-2.11479 -8.71289,-2.30288c-2.83008,-0.54961 -17.00244,-1.43335 -19.06641,0.01436c-0.21533,0.15161 -0.28564,0.254 -0.56396,0.2833c-0.4834,0.05098 -0.9668,-0.00103 -1.37695,0.31099c0.40137,0.14692 0.86572,-0.03486 1.34912,-0.13374c-1.64355,1.05835 -3.9668,0.27935 -5.93115,1.16514c-10.50293,4.7354 -20.65869,11.78013 -26.97217,21.59209c-1.06787,1.66011 -2.94141,3.46699 -2.82422,5.48247c-0.50684,0.77314 -4.99951,8.4082 -5.00977,8.41699c-2.44482,5.51543 -5.96177,12.36226 -7.59771,18.15249c-3.72715,9.75483 -6.28989,20.31211 -8.31548,30.52559c-0.45557,2.29717 -1.25068,7.85581 -2.28223,9.79175l-0.2644,-0.18721l-0.0939,0.15718z" fill="#abf524"/><path d="M142.64546,76.77759c0.18882,-3.07632 1.75649,-4.27485 1.84556,-6.45527l-0.83013,1.42896c0.12349,-0.97734 2.57461,-7.2019 3.0564,-8.28105c-0.10107,1.00503 -0.53774,2.00493 -0.50317,2.94419c0.88843,-1.28818 2.73413,-6.86543 4.02905,-7.78931c-2.44482,5.51543 -5.96177,12.36226 -7.59771,18.15249z" fill="#cafc21"/><path d="M190.98047,21.96841c-0.4834,0.09888 -0.94775,0.28066 -1.34912,0.13374c0.41016,-0.31201 0.89355,-0.26001 1.37695,-0.31099c0.27832,-0.0293 0.34863,-0.13169 0.56396,-0.2833c2.06396,-1.44771 16.23633,-0.56396 19.06641,-0.01436c0.96826,0.18809 8.37305,1.99526 8.71289,2.30288l-0.52588,0.1248c0.37207,0.27158 1.68018,0.6605 2.51074,1.16558c2.44043,1.4855 4.42236,3.02886 6.60205,4.86313l0.07324,-0.09141c-0.47461,-0.4749 -2.61035,-2.37876 -2.74219,-2.71465l0.07178,-0.14253c3.3252,2.80151 5.4375,5.18687 7.73877,8.93203c0.60205,0.9791 1.42822,2.63804 1.979,3.48018c1.45605,4.6311 2.00244,4.70889 2.56494,9.97778l-0.18896,0.17007c-0.75732,-5.37686 -1.63916,-9.05625 -4.70215,-13.69497c-0.14209,-0.21606 -1.58057,-2.5938 -1.7373,-2.61226c-1.16309,-0.12539 -1.72119,-1.31865 -2.55762,-2.17573c-8.77295,-8.99473 -20.14746,-10.99717 -32.62939,-9.58564c-16.11035,2.16636 -29.6543,13.49033 -38.67187,26.2938c-0.56104,0.79731 -1.21143,1.73306 -1.88379,2.42153c-0.11719,-2.01548 1.75635,-3.82236 2.82422,-5.48247c6.31348,-9.81196 16.46924,-16.85669 26.97217,-21.59209c1.96436,-0.88579 4.2876,-0.10679 5.93115,-1.16514z" fill="#cafc21"/><path d="M131.56143,117.09272l0.12803,-0.02783l0.2458,0.27715c0.64336,0.00249 0.72422,-0.01699 1.35762,-0.16846l0.21152,0.10664l-0.53555,0.3876l0.24536,-0.19438c0.64775,0.21812 0.28623,0.34775 0.78032,0.52588c-0.89326,0.19175 -1.55918,0.32358 -2.46489,0.44062c0.02959,-0.3605 0.02417,-0.96724 0.03179,-1.34722z" fill="#feca20"/><path d="M117.0063,161.46826c1.81729,0.38672 5.18438,-0.28418 5.85308,0.36328c-0.47827,2.40527 -1.75884,8.4375 -1.92759,10.73584c5.13296,-1.20264 10.60107,-1.83691 15.79395,-2.77734c1.01543,-0.18457 2.97085,-0.38818 3.87817,0.14502c-0.35977,2.59424 -0.98408,4.72705 -1.41445,7.23486c-1.42178,8.28662 -3.24521,16.20557 -5.06851,24.44238c-5.79756,26.19434 -11.9814,59.24414 -34.32598,76.71094c-9.10166,7.11475 -20.97891,10.54688 -32.47969,9.17725c-4.32173,-0.51416 -10.32729,-2.89453 -13.70552,-5.71289c-0.46538,-0.23584 -2.23447,-1.97168 -2.7293,-2.44189c-7.1354,-6.90527 -8.96792,-17.95898 -6.92754,-27.16406c0.34922,-1.57471 0.17373,-2.52832 0.83716,-4.13232c0.37104,-2.04639 1.70889,-4.91748 2.54297,-6.84082c5.45024,-12.56982 16.84819,-23.71289 28.01938,-31.35059c2.90596,-1.98633 8.98271,-5.77734 12.3542,-6.55371c-0.16494,1.68457 -0.81914,6.09668 -1.8769,7.41357c-2.70146,3.34131 -6.58228,5.68945 -9.43271,8.91064c-7.50674,8.48291 -15.35054,18.18604 -15.30835,30.09961c0.0293,8.31299 6.00264,12.79102 13.75898,8.89746c0.6939,-0.74707 2.51338,-1.50879 3.30938,-2.65137c0.56616,-0.81152 1.8041,-2.36572 2.51646,-2.9458c3.77065,-3.28711 8.95649,-23.34521 10.40537,-29.11377c2.56597,-10.32861 4.82446,-20.73047 6.77256,-31.19238c0.03838,-1.06787 1.75635,-9.95508 2.03892,-10.63184c1.09336,-5.65137 1.91265,-11.07129 3.34688,-16.64941c1.18286,-0.93457 11.7665,-3.59766 13.76909,-3.97266z" fill="url(#color-3)"/><path d="M120.93179,172.56738c5.13296,-1.20264 10.60107,-1.83691 15.79395,-2.77734c1.01543,-0.18457 2.97085,-0.38818 3.87817,0.14502c-0.35977,2.59424 -0.98408,4.72705 -1.41445,7.23486c-1.42178,8.28662 -3.24521,16.20557 -5.06851,24.44238c-5.79756,26.19434 -11.9814,59.24414 -34.32598,76.71094c-9.10166,7.11475 -20.97891,10.54688 -32.47969,9.17725c-4.32173,-0.51416 -10.32729,-2.89453 -13.70552,-5.71289c3.22778,0.08643 5.2894,1.27148 8.59409,1.37988c0.64116,0.03955 1.44814,0.11426 2.0751,0.12598c1.09395,-0.02637 2.24502,-0.02197 3.33047,-0.12598c19.65703,-1.87354 29.43105,-21.32812 35.53828,-37.70801c0.55884,-1.49854 1.03784,-2.95898 1.61953,-4.3916c3.58462,-9.87158 5.36309,-19.1792 7.83574,-29.22803c0.27935,-0.79248 0.64951,-2.7085 0.83613,-3.62402c0.45278,-2.2207 1.15854,-4.91748 1.39219,-7.15869c0.48398,-1.90283 0.92388,-3.81592 1.31938,-5.73779c0.29429,-1.43994 0.81841,-4.20117 1.28979,-5.57666c0.68042,-5.36279 2.6439,-11.81982 3.27275,-17.10791z" fill="url(#color-4)"/><path d="M64.27896,283.29346c1.09395,-0.02637 2.24502,-0.02197 3.33047,-0.12598c19.65703,-1.87354 29.43105,-21.32812 35.53828,-37.70801c0.55884,-1.49854 1.03784,-2.95898 1.61953,-4.3916c-0.00454,2.01123 -0.93003,2.95166 -1.25977,4.53516c-0.39536,1.89844 -0.10181,3.14502 -0.92695,5.17529l0.04731,0.23291c0.4062,-0.87012 0.72876,-1.64795 1.08662,-2.53857l0.12407,0.11572c-0.88916,4.44727 -2.50913,5.46826 -3.88652,8.9751c-1.95088,4.2334 -4.76733,9.16699 -7.17832,13.16602c-0.62681,1.04004 -2.25776,2.4375 -3.00879,3.40723c-0.71177,0.80566 -2.73955,2.3877 -3.20742,3.2124c-0.74546,1.41211 -7.94956,4.94824 -9.79556,5.43164c-4.61484,1.20557 -7.82725,2.06982 -12.48296,0.5127z" fill="#89ea2c"/><path d="M113.78701,209.07422c0.00352,2.40527 -0.77095,5.12695 -0.7314,7.18945c-2.47134,11.12988 -4.46045,22.38281 -8.38359,33.104c-0.4481,1.22461 -1.36978,4.32129 -2.05693,5.30859c-0.27334,1.13818 -0.94731,2.37305 -1.45254,3.43799c-2.81616,5.93848 -6.2584,11.60742 -10.86533,16.3374c-0.96709,0.99316 -2.36455,2.60156 -3.73975,2.89746c0.46787,-0.82471 2.49565,-2.40674 3.20742,-3.2124c0.75103,-0.96973 2.38198,-2.36719 3.00879,-3.40723c2.41099,-3.99902 5.22744,-8.93262 7.17832,-13.16602c1.37739,-3.50684 2.99736,-4.52783 3.88652,-8.9751l-0.12407,-0.11572c-0.35786,0.89063 -0.68042,1.66846 -1.08662,2.53857l-0.04731,-0.23291c0.82515,-2.03027 0.53159,-3.27686 0.92695,-5.17529c0.32974,-1.5835 1.25522,-2.52393 1.25977,-4.53516c3.58462,-9.87158 5.36309,-19.1792 7.83574,-29.22803l0.14033,0.61377c0.47402,-1.33301 0.35566,-2.10059 1.0437,-3.37939z" fill="#abf524"/><path d="M117.44048,189.74268l0.21577,0.22266l-0.04351,0.13916c-0.62534,2.04199 -0.89971,4.18945 -1.40625,6.24316c-0.84902,3.44385 -1.34546,6.9873 -2.16035,10.41943c0.27817,0.28711 0.11719,0.21973 0.45498,0.31494c0.19351,-1.52637 3.21592,-16.78564 3.41294,-16.99805c-0.06152,1.81201 -0.85093,5.03174 -1.25728,6.85254c-0.49087,2.24121 -0.94849,4.49121 -1.37271,6.74561c-0.69185,3.64893 -1.28818,9.15967 -2.22847,12.58154c-0.03955,-2.0625 0.73491,-4.78418 0.7314,-7.18945c-0.68804,1.27881 -0.56968,2.04639 -1.0437,3.37939l-0.14033,-0.61377c0.27935,-0.79248 0.64951,-2.7085 0.83613,-3.62402c0.45278,-2.2207 1.15854,-4.91748 1.39219,-7.15869c0.48398,-1.90283 0.92388,-3.81592 1.31938,-5.73779c0.29429,-1.43994 0.81841,-4.20117 1.28979,-5.57666z" fill="#c2dc1c"/><path d="M80.67349,253.02832c3.77065,-3.28711 8.95649,-23.34521 10.40537,-29.11377c2.56597,-10.32861 4.82446,-20.73047 6.77256,-31.19238c0.47168,1.46631 -2.53301,13.25684 -2.8585,15.53027c-0.18149,1.26709 -1.26592,4.94824 -1.25903,6.42188c0.60952,-0.47607 4.34458,-19.229 4.57837,-21.26221l0.10166,0.11572c-0.17021,2.10938 -1.12397,5.96191 -1.54438,8.2251c-1.58789,8.73633 -3.56294,17.39941 -5.91899,25.95996c-2.08213,7.84277 -4.90283,19.39307 -9.91011,25.84863z" fill="url(#color-5)"/><path d="M119.09678,173.08154l1.61646,-0.44678c-0.62886,5.28809 -2.59233,11.74512 -3.27275,17.10791c-0.47139,1.37549 -0.99551,4.13672 -1.28979,5.57666c-0.39551,1.92188 -0.8354,3.83496 -1.31938,5.73779c-0.27231,-2.896 0.55649,-3.69727 1.12954,-6.30029c0.02124,-1.12354 -0.34688,-2.13574 -0.26733,-3.28125c0.28579,-4.11768 1.82563,-7.98193 1.68779,-12.12598c-0.04131,-1.24365 0.23467,-2.5752 0.50625,-3.78955l0.11851,0.00732c-0.00542,0.57861 -0.02314,0.92432 0.06475,1.49121c0.42041,-0.40869 0.17183,-0.646 0.44019,-0.96533c0.44707,-0.5332 0.75967,-2.10498 0.34336,-2.64404l-0.19438,0.07178l-0.24302,0.83936l-0.20347,0.07178c-0.41294,-0.39844 -0.33765,-0.17285 -0.38979,-0.63867c0.24463,-0.35449 0.84272,-0.5332 1.2731,-0.71191z" fill="#43da2b"/><path d="M117.0063,161.46826c1.81729,0.38672 5.18438,-0.28418 5.85308,0.36328c-0.47827,2.40527 -1.75884,8.4375 -1.92759,10.73584l-0.21855,0.06738l-1.61646,0.44678c0.03267,-0.0542 0.05815,-0.11279 0.09829,-0.16113c0.29883,-0.35889 1.16616,-0.46143 1.3292,-0.78223c0.08408,-0.16553 1.96216,-9.72949 1.97725,-10.18359c-1.02188,0.03809 -4.33491,-0.0791 -5.09268,0.60498c-1.00503,0.9082 -2.21191,0.65332 -3.42554,1.20557c-0.42598,0.19189 -1.82534,0.89209 -2.1334,0.91113c-3.5228,0.21826 -4.87866,0.31055 -8.07744,2.1123l-0.21636,-0.08643l-0.07793,-0.22412c-1.38076,1.38135 -2.56465,15.29443 -3.58784,15.6123c1.09336,-5.65137 1.91265,-11.07129 3.34688,-16.64941c1.18286,-0.93457 11.7665,-3.59766 13.76909,-3.97266z" fill="#44975b"/><path d="M44.79009,248.04932l0.14985,0.24023c-0.76509,3.15088 -1.42119,7.42676 -1.54937,10.70801c-0.01406,0.36182 0.18311,4.66699 0.20933,4.74316l0.16875,0.02637l0.26074,-0.79248c0.43242,0.32227 0.94995,0.69434 1.11328,1.23926c-0.16274,3.17432 0.88389,6.27393 2.46577,8.98975c0.18252,0.31348 0.71865,1.32861 0.9189,1.47803c0.63018,0.69434 0.93062,1.04736 1.41489,1.83984c0.58784,0.96094 0.62388,1.98926 1.3103,2.72314l-0.37207,0.10107c-7.1354,-6.90527 -8.96792,-17.95898 -6.92754,-27.16406c0.34922,-1.57471 0.17373,-2.52832 0.83716,-4.13232z" fill="url(#color-6)"/><path d="M51.25254,279.24463l0.39756,0.26953c1.11357,-0.29004 2.17075,-0.11719 3.28799,0.14795c0.9397,0.22266 1.90093,1.04883 2.80884,1.40186c0.63486,0.26807 1.61924,0.38525 2.17397,0.70459c-0.4207,0.11865 -0.91025,0.03955 -1.35835,0.00732c0.43872,0.49072 2.71304,1.00488 3.64131,1.3916c-3.30469,-0.1084 -5.36631,-1.29346 -8.59409,-1.37988c-0.46538,-0.23584 -2.23447,-1.97168 -2.7293,-2.44189z" fill="#358977"/><path d="M80.67349,253.02832l0.36694,0.5332c-1.00942,1.30664 -3.87935,4.77979 -5.04741,5.77734l-0.12012,-0.05127c0.37471,-0.54932 0.66797,-0.8584 1.11108,-1.34766l-0.10415,-0.07178c-0.6041,0.26953 -1.26519,0.54785 -1.84687,0.85254l-0.1853,-0.09521c0.6939,-0.74707 2.51338,-1.50879 3.30938,-2.65137c0.56616,-0.81152 1.8041,-2.36572 2.51646,-2.9458z" fill="#358977"/><path d="M45.14268,264.21387c0.54331,2.51367 0.49878,5.71582 2.25908,7.88965c0.46846,0.57715 1.61104,1.21289 1.25347,2.11084l-0.06519,0.00439l-0.0627,0.46289c-0.20024,-0.14941 -0.73638,-1.16455 -0.9189,-1.47803c-1.58188,-2.71582 -2.62852,-5.81543 -2.46577,-8.98975z" fill="#1dada4"/><path d="M51.49072,266.45361h0.1563c0.71587,0.35303 2.32632,1.40186 2.6124,2.1958l-0.10693,0.15527c-0.45381,-0.49805 -1.10874,-0.41162 -1.71914,-0.36182l-0.07866,0.13037c0.54741,0.44531 1.97915,1.02979 1.33564,1.89697c-0.31582,-0.07764 -0.36489,-0.13037 -0.64761,-0.29736c-0.45762,0.18164 -0.00527,0.5332 -0.6832,0.85986c-0.20156,-0.35303 -0.08804,-0.25488 -0.40767,-0.45703l-0.0498,0.6416c-0.25269,0.33545 -0.23057,0.31494 -0.62959,0.44971l-0.1396,-0.16553l0.16128,-0.24756c0.06943,-1.34033 -0.13916,-1.74756 0.81533,-2.68213l-0.10708,-0.12158c-0.49937,0.0542 -0.28374,-0.03662 -0.67339,0.271c-0.40034,0.76318 -0.11865,1.19092 -0.42114,1.86475c-0.28828,-0.27832 0.02373,-0.58594 -0.27305,-1.26855c-0.24053,0.18311 -0.18062,0.78516 -0.41982,1.3125l-0.24199,0.02051c-0.61421,-0.28857 -0.7585,-0.34424 -0.6252,-0.97266c0.3709,-0.43066 0.49321,-0.45264 1.01777,-0.72363c0.0542,-0.02637 0.1084,-0.05273 0.16274,-0.08057c0.24185,-1.30225 0.12612,-1.41211 0.9624,-2.41992z" fill="#1dada4"/><path d="M48.12158,263.78174c2.93394,0.84229 0.16611,3.19482 -0.3728,4.74902c-0.15396,0.33105 -0.18237,0.36475 -0.37939,0.67236l-0.13623,-0.17432c0.09009,-0.59326 0.22881,-0.94189 0.4894,-1.49268c0.51768,-1.09277 0.41514,-2.53857 0.39902,-3.75439z" fill="#1dada4"/><path d="M50.02017,264.78955l0.21006,-0.08203c1.10947,1.09424 -1.91895,3.60938 -1.86855,5.18994l-0.14165,-0.01904c-1.20542,-1.16162 1.86094,-2.50928 1.80015,-5.08887z" fill="#1dada4"/><path d="M48.46831,271.89258l-0.10811,-0.3252c0.49072,0.07764 0.52031,0.14941 0.96694,-0.07617l0.44092,0.21533l0.14766,0.38672c-0.80581,0.35156 -0.87744,-0.12598 -1.44741,-0.20068z" fill="#1dada4"/><path d="M48.63047,273.01904c-0.4002,-0.54639 -0.53628,-0.68701 -0.77798,-1.30371l0.1623,-0.09814l0.45352,0.27539c0.14941,0.57275 0.4377,0.42773 0.45308,1.08838z" fill="#1dada4"/><path d="M50.13047,267.54346l0.19102,0.06152c-0.07324,0.5332 0.02798,0.2915 -0.37427,0.71924l-0.15352,-0.04395c0.06797,-0.36621 0.13418,-0.39258 0.33677,-0.73682z" fill="#1dada4"/><path d="M208.37402,98.03628c0.30322,-0.52397 0.93311,-1.72441 1.42969,-1.92305c0.4292,0.95991 0.46436,3.75044 0.53174,4.87295c0.44824,7.50205 0.13916,13.5936 -2.71582,20.64844c-0.46729,1.154 -2.64111,6.34409 -3.61523,7.02393c-0.5376,1.14053 -1.97461,2.89277 -2.80518,3.86836c-6.53906,7.69263 -15.30322,12.67119 -24.70166,16.05073c-7.02246,2.46826 -14.21777,4.40771 -21.52881,5.80225c-3.68994,0.7207 -8.4668,1.28906 -11.95767,2.28662l-0.07705,0.31348c-0.01172,2.80371 -1.5646,10.0415 -2.33013,12.95508c-0.90732,-0.5332 -2.86274,-0.32959 -3.87817,-0.14502c-5.19287,0.94043 -10.66099,1.57471 -15.79395,2.77734c0.16875,-2.29834 1.44932,-8.33057 1.92759,-10.73584c-0.6687,-0.64746 -4.03579,0.02344 -5.85308,-0.36328c-2.00259,0.375 -12.58623,3.03809 -13.76909,3.97266c-13.11064,4.42529 -26.82598,11.48438 -35.32383,22.78125c-0.8165,1.08398 -1.35879,2.35254 -2.28545,3.36914c-0.23291,0.46875 -0.40957,0.97559 -0.83979,1.23926l-0.24829,-0.08057c-0.3646,-0.82031 -0.34893,-1.9834 -0.40898,-2.91504c-0.54199,-4.53516 -0.20889,-10.2583 0.54741,-14.67773c1.70757,-9.97705 5.70718,-18.56982 13.01909,-25.66113c1.95029,-1.89111 3.59517,-3.70005 5.91665,-5.3127c0.40342,-0.54448 3.27407,-2.46401 3.98965,-2.94067c11.26216,-7.50352 24.67764,-10.87515 37.66934,-14.04712c3.16934,-0.77388 7.53662,-1.85435 10.73232,-2.22202c21.77153,-4.18198 54.29985,-7.72925 70.19194,-24.23628c0.80566,-0.93032 1.43555,-1.71738 2.17676,-2.70103z" fill="#feca20"/><path d="M206.19727,100.7373l0.2666,0.03838c0.2417,-0.25298 0.27832,-0.33237 0.58008,-0.50054c-0.01465,0.25283 0.02051,0.19512 -0.12305,0.39624c-0.37061,0.51943 0.06592,1.46147 -0.06592,1.9793c-0.09668,0.38145 -0.74854,1.01719 -0.91699,1.41445c-1.19531,2.27314 -1.8252,3.95786 -3.52148,5.95371c-13.67139,16.08867 -36.76611,22.46309 -56.4145,27.15557c-5.62412,1.36465 -11.26685,2.6521 -16.92642,3.86177c-1.83604,0.16685 -3.25093,0.73096 -5.01152,1.19971c-0.99331,0.2644 -2.13325,0.41572 -3.15454,0.55649c-0.84214,0.38232 -2.13442,0.88345 -2.7397,1.54907c-18.6041,4.6478 -33.96665,11.68784 -45.45688,27.48179c-0.55737,1.22021 -1.79985,2.75098 -2.31958,3.83789c-1.46631,3.06299 -4.47524,9.10547 -5.25205,12.18604c0.21929,1.33301 -0.43916,2.4917 0.18765,3.7251l0.29897,0.01904c-0.23291,0.46875 -0.40957,0.97559 -0.83979,1.23926l-0.24829,-0.08057c-0.3646,-0.82031 -0.34893,-1.9834 -0.40898,-2.91504c-0.54199,-4.53516 -0.20889,-10.2583 0.54741,-14.67773c1.70757,-9.97705 5.70718,-18.56982 13.01909,-25.66113c1.95029,-1.89111 3.59517,-3.70005 5.91665,-5.3127c0.40342,-0.54448 3.27407,-2.46401 3.98965,-2.94067c11.26216,-7.50352 24.67764,-10.87515 37.66934,-14.04712c3.16934,-0.77388 7.53662,-1.85435 10.73232,-2.22202c21.77153,-4.18198 54.29985,-7.72925 70.19194,-24.23628z" fill="#50e519"/><path d="M136.00532,124.97358c2.21704,0.49966 11.47368,-2.51895 12.96489,-2.02134c-1.04297,0.93589 -6.32417,1.60503 -8.0688,2.19946c-1.62261,0.38921 -3.45073,1.06992 -5.07378,1.34883c-3.83115,0.65845 -7.74272,1.09834 -11.48979,2.16899c-3.43447,1.03506 -6.72144,2.55073 -10.07227,3.79775c-1.21377,0.45176 -3.20039,0.37734 -4.49106,0.79453c-2.0644,0.66738 -4.09189,1.72178 -6.06519,2.54619c-2.60493,1.08838 -3.96709,3.16934 -1.35776,5.22612c1.58364,1.24893 3.00571,1.26372 4.83003,1.77979c0.11953,0.03354 0.79805,0.86953 0.96372,1.07212c3.88564,-0.57671 7.79663,-0.96812 11.71948,-1.17275l0.01567,0.13916l-0.03618,0.04146l1.06523,-0.10151c-0.84214,0.38232 -2.13442,0.88345 -2.7397,1.54907c-18.6041,4.6478 -33.96665,11.68784 -45.45688,27.48179c-0.55737,1.22021 -1.79985,2.75098 -2.31958,3.83789c-1.46631,3.06299 -4.47524,9.10547 -5.25205,12.18604c0.21929,1.33301 -0.43916,2.4917 0.18765,3.7251l0.29897,0.01904c-0.23291,0.46875 -0.40957,0.97559 -0.83979,1.23926l-0.24829,-0.08057c-0.3646,-0.82031 -0.34893,-1.9834 -0.40898,-2.91504c-0.54199,-4.53516 -0.20889,-10.2583 0.54741,-14.67773c1.70757,-9.97705 5.70718,-18.56982 13.01909,-25.66113c1.95029,-1.89111 3.59517,-3.70005 5.91665,-5.3127c0.40342,-0.54448 3.27407,-2.46401 3.98965,-2.94067c11.26216,-7.50352 24.67764,-10.87515 37.66934,-14.04712c3.16934,-0.77388 7.53662,-1.85435 10.73232,-2.22202z" fill="#33cd6a"/><path d="M119.84429,142.8939l1.06523,-0.10151c-0.84214,0.38232 -2.13442,0.88345 -2.7397,1.54907c-18.6041,4.6478 -33.96665,11.68784 -45.45688,27.48179c0.01465,-0.15527 0.0293,-0.31201 0.04395,-0.46729c3.40488,-5.28516 8.26846,-9.77637 13.31499,-13.4707c-1.43027,-0.66064 -2.18115,1.96582 -3.61729,2.22949l-0.1415,-0.16553c0.27524,-0.85986 2.83447,-2.521 3.62388,-3.11719c3.48604,-2.72461 7.25815,-4.74463 11.19595,-6.68848c2.87285,-1.41797 5.1394,-2.46094 8.27417,-3.28125c1.13877,-0.29736 2.09619,-1.69541 3.61377,-1.65293c1.16221,0.03252 3.02095,0.05479 4.06963,-0.43579c0.3208,-0.15776 0.14634,-0.15806 0.53555,-0.1623c-0.32358,-0.08965 -0.36255,-0.11821 -0.67104,-0.25781l-0.00996,-0.21929c1.4083,-1.35454 2.57021,0.12144 3.39478,-0.19849c1.03008,-0.39961 2.37202,-0.62856 3.35991,-0.98789z" fill="#43da2b"/><path d="M64.13086,189.83496c-0.54199,-4.53516 -0.20889,-10.2583 0.54741,-14.67773c1.70757,-9.97705 5.70718,-18.56982 13.01909,-25.66113c1.95029,-1.89111 3.59517,-3.70005 5.91665,-5.3127c-0.62402,1.23984 -0.97852,0.53276 -1.80835,1.98135c-1.07974,1.88555 -3.51079,3.42803 -4.86987,5.1668c-1.65498,1.73438 -3.47798,5.00684 -4.80557,6.44531c0.06196,-1.12793 3.86821,-5.43018 4.25903,-6.30029c-7.22417,6.49512 -11.64976,20.03174 -12.09316,29.54297c-0.07368,1.58203 0.21123,3.71338 0.35493,5.3584c0.12056,1.38135 -0.09141,2.40381 -0.04072,3.48633z" fill="#5fae57"/><path d="M65.14131,187.84717c0.21929,1.33301 -0.43916,2.4917 0.18765,3.7251l0.29897,0.01904c-0.23291,0.46875 -0.40957,0.97559 -0.83979,1.23926l-0.24829,-0.08057c-0.3646,-0.82031 -0.34893,-1.9834 -0.40898,-2.91504l0.47944,0.0293l-0.02842,1.27148c0.06343,-0.81885 0.15117,-2.64111 0.55942,-3.28857z" fill="#999653"/><path d="M122.91196,160.14404c0.88213,-0.3252 2.18101,-0.59473 3.127,-0.7749c4.40083,-0.83936 8.81147,-1.6875 13.23574,-2.39209c1.05542,-0.16846 2.0603,-0.46436 3.12393,-0.58008c0.48882,0.21533 0.30059,0.04248 0.5354,0.58301c-0.01172,2.80371 -1.5646,10.0415 -2.33013,12.95508c-0.90732,-0.5332 -2.86274,-0.32959 -3.87817,-0.14502c-5.19287,0.94043 -10.66099,1.57471 -15.79395,2.77734c0.16875,-2.29834 1.44932,-8.33057 1.92759,-10.73584c0.09683,-0.6123 0.25283,-1.12207 0.05259,-1.6875z" fill="#feaa24"/><path d="M208.37402,98.03628c1.20264,2.27739 -1.38867,7.13921 -2.38184,9.26792c-5.45215,11.68271 -16.16748,19.19004 -27.98437,23.56201c-1.05469,0.61509 -6.47461,2.49668 -7.6875,2.62969l-0.73389,0.18062c-1.62305,0.62139 -7.60107,2.26172 -9.30029,2.46797c-1.88379,0.29092 -4.30518,0.92842 -6.24463,1.31572c-1.87646,0.37471 -5.729,0.79233 -7.34033,1.41094l-14.948,2.41831c-0.82881,0.13931 -2.75361,0.73491 -3.39595,0.74487c-0.975,-0.26909 -1.65498,0.36636 -3.03354,0.23086c0.49966,-0.43755 2.80723,-0.58271 3.7519,-1.229c5.65957,-1.20967 11.30229,-2.49712 16.92642,-3.86177c19.64839,-4.69248 42.74312,-11.06689 56.4145,-27.15557c1.69629,-1.99585 2.32617,-3.68057 3.52148,-5.95371c0.16846,-0.39727 0.82031,-1.03301 0.91699,-1.41445c0.13184,-0.51782 -0.30469,-1.45986 0.06592,-1.9793c0.14355,-0.20112 0.1084,-0.14341 0.12305,-0.39624c-0.30176,0.16816 -0.33838,0.24756 -0.58008,0.50054l-0.2666,-0.03838c0.80566,-0.93032 1.43555,-1.71738 2.17676,-2.70103z" fill="#abf524"/><path d="M172.75781,132.0624c0.05859,-0.02769 5.00244,-1.17451 5.25,-1.19619c-1.05469,0.61509 -6.47461,2.49668 -7.6875,2.62969l-0.73389,0.18062c-1.62305,0.62139 -7.60107,2.26172 -9.30029,2.46797c1.08545,-0.80171 5.72607,-2.50723 7.07959,-2.67202c1.53809,-0.32754 4.19385,-1.36113 5.39209,-1.41006z" fill="#cafc21"/><path d="M208.37402,98.03628c0.30322,-0.52397 0.93311,-1.72441 1.42969,-1.92305c0.4292,0.95991 0.46436,3.75044 0.53174,4.87295c0.44824,7.50205 0.13916,13.5936 -2.71582,20.64844c-0.46729,1.154 -2.64111,6.34409 -3.61523,7.02393l-0.21973,-0.08496c0.29297,-0.77607 1.00342,-1.4209 1.15869,-1.84849c0.46875,-1.29302 1.18359,-2.42271 1.71973,-3.61919c3.44092,-7.69717 3.54053,-14.14292 3.38379,-22.37856c-0.82031,0.38452 -4.07227,7.22549 -4.79736,8.57139c-0.59473,1.09438 -1.23633,2.16255 -1.92187,3.20156c-4.21875,6.30176 -9.66943,10.8189 -16.19385,14.50986c-0.52441,0.29678 -1.56885,0.7667 -1.93799,1.12603c0.79395,-0.06519 5.05664,-2.74731 5.56348,-2.69707c-1.14551,1.04868 -3.56396,2.20928 -5.02588,2.92412c-12.06738,5.89922 -25.58057,8.3209 -38.71143,10.5605c-0.10693,-0.01758 -0.21387,-0.03516 -0.3208,-0.05259c1.61133,-0.6186 5.46387,-1.03623 7.34033,-1.41094c1.93945,-0.3873 4.36084,-1.0248 6.24463,-1.31572c1.69922,-0.20625 7.67725,-1.84658 9.30029,-2.46797l0.73389,-0.18062c1.21289,-0.13301 6.63281,-2.0146 7.6875,-2.62969c11.81689,-4.37197 22.53223,-11.8793 27.98438,-23.56201c0.99316,-2.12871 3.58447,-6.99053 2.38184,-9.26792z" fill="#c2dc1c"/><path d="M120.90952,142.79238c1.02129,-0.14077 2.16123,-0.29209 3.15454,-0.55649c1.7606,-0.46875 3.17549,-1.03286 5.01152,-1.19971c-0.94468,0.64629 -3.25225,0.79146 -3.7519,1.229c1.37856,0.1355 2.05854,-0.49995 3.03354,-0.23086c-0.89092,0.20522 -1.80879,0.3873 -2.71099,0.53892c-2.51543,0.4229 -4.98955,1.26929 -7.47642,1.76821c0.60527,-0.66562 1.89756,-1.16675 2.7397,-1.54907z" fill="#89ea2c"/><path d="M122.91196,160.14404c0.20024,0.56543 0.04424,1.0752 -0.05259,1.6875c-0.6687,-0.64746 -4.03579,0.02344 -5.85308,-0.36328c2.09517,-0.47168 3.73198,-0.92578 5.90566,-1.32422z" fill="#438c46"/><path d="M214.16016,90.60923c1.48242,-0.45352 3.23438,-0.79761 4.66992,-1.32261c3.95508,-1.44727 7.81494,-3.43799 11.17969,-5.96221c1.16602,-0.87422 4.48828,-4.05615 5.32324,-4.50015c1.38867,0.3501 4.82227,4.73672 5.89746,5.98403c8.46973,9.88989 15.23877,21.11646 20.0332,33.22222c1.88965,4.88394 3.43799,10.09453 4.79443,15.15425c0.73682,3.20259 1.51758,6.35083 2.13574,9.58931c0.36035,1.88555 0.58887,3.90952 0.99463,5.76841l0.38525,3.69434l0.00732,0.29004c0.06299,1.84131 0.55811,3.86426 0.66211,5.72607c0.30176,5.34229 0.05127,10.24365 -0.62549,15.52734c-0.35449,2.76709 -0.2915,4.65381 -0.91699,7.57764c-0.11426,2.04785 -0.62402,4.22021 -1.02246,6.24463c-1.77246,9.01318 -4.51904,17.80664 -8.19287,26.2251c-1.07227,0.63721 -0.93896,1.96582 -1.81055,2.79492c-0.26514,0.25342 -0.84375,-0.01758 -0.89795,0.01025c-1.39453,0.73389 -3.18018,1.9043 -4.50879,2.68945c-0.46436,0.27539 -0.68555,1.70068 -0.95947,2.06836c-0.77051,1.03125 -1.88525,1.8457 -2.80957,2.67041c-0.55811,0.49658 -0.47314,2.18848 -1.18066,2.37744c-0.54932,0.14648 -1.25244,1.04736 -1.72412,1.06787l0.09375,-0.11426c0.33984,-0.41895 0.47168,-0.53027 0.479,-1.07959c-3.39697,4.45166 -6.75146,8.8667 -10.73291,12.81152c-0.52441,0.51855 -1.72998,1.84131 -2.27783,2.19434c-2.18701,2.71436 -6.77783,6.07471 -9.33838,8.53857c-0.93164,0.49805 -3.66504,2.68213 -4.67139,3.44385c-0.85693,0.00439 -0.91553,0.67236 -1.53369,-0.07617c0.1582,-0.60498 0.45703,-1.00195 0.78223,-1.53369c0.57275,-0.8042 3.29443,-2.90332 4.1748,-3.75146c4.86621,-4.68457 9.12598,-9.79834 12.9126,-15.38818c1.13525,-1.67432 2.18701,-3.44678 3.35303,-5.08301c0.07178,-0.36035 2.20752,-4.05176 2.51367,-4.62305c1.19678,-2.20459 2.32764,-4.44287 3.39258,-6.71338c4.57764,-9.95947 7.38574,-21.60205 8.41992,-32.41406c0.30029,-3.14355 0.76318,-5.88135 0.70752,-9.06445c-0.07178,-4.09424 -0.11279,-7.94238 -0.88184,-11.98389c-2.40234,-26.24546 -15.59033,-49.95132 -34.33301,-68.12798c-1.36377,-1.32231 -2.97803,-2.36851 -4.33008,-3.76025z" fill="#fce914"/><path d="M265.52197,181.69336c0.82764,-1.40039 1.81055,-9.55664 1.97754,-11.75244c0.03809,-0.50537 0.14209,-0.60937 0.50537,-0.89355l0.24023,0.10107c0.91699,2.30273 -1.25977,10.20996 -0.44238,11.10645c0.28271,-0.1626 0.30469,-0.18018 0.61377,-0.27393c0.31787,0.42627 0.23877,0.77197 0.28418,1.37695c-0.11426,2.04785 -0.62402,4.22021 -1.02246,6.24463c-1.77246,9.01318 -4.51904,17.80664 -8.19287,26.2251c-1.07227,0.63721 -0.93896,1.96582 -1.81055,2.79492c-0.26514,0.25342 -0.84375,-0.01758 -0.89795,0.01025c-1.39453,0.73389 -3.18018,1.9043 -4.50879,2.68945c-0.46436,0.27539 -0.68555,1.70068 -0.95947,2.06836c-0.77051,1.03125 -1.88525,1.8457 -2.80957,2.67041c-0.55811,0.49658 -0.47314,2.18848 -1.18066,2.37744c-0.54932,0.14648 -1.25244,1.04736 -1.72412,1.06787l0.09375,-0.11426c0.33984,-0.41895 0.47168,-0.53027 0.479,-1.07959c0.18457,-0.54199 2.7041,-4.08984 3.17285,-4.90576c2.13721,-3.72656 4.80176,-7.89551 6.53027,-11.7876c0.4541,-0.646 1.7373,-3.55225 2.07861,-4.34033c3.29004,-7.59521 5.82715,-15.49512 7.57324,-23.58545z" fill="#43da2b"/><path d="M240.16992,233.55908c-0.03369,-0.36621 -0.05713,-0.91992 0.12744,-1.30664c1.24512,-2.59717 3.5332,-5.23975 5.47119,-7.39307c0.1626,-0.18018 0.90234,-0.5625 1.13379,-0.65332c0.49658,-0.18604 0.95947,-1.43701 1.30371,-1.76221c1.74316,-1.64941 6.47461,-12.02197 7.66406,-12.82471c-1.72852,3.89209 -4.39307,8.06104 -6.53027,11.7876c-0.46875,0.81592 -2.98828,4.36377 -3.17285,4.90576c-3.39697,4.45166 -6.75146,8.8667 -10.73291,12.81152c-0.52441,0.51855 -1.72998,1.84131 -2.27783,2.19434c-2.18701,2.71436 -6.77783,6.07471 -9.33838,8.53857c-0.93164,0.49805 -3.66504,2.68213 -4.67139,3.44385c-0.85693,0.00439 -0.91553,0.67236 -1.53369,-0.07617c0.1582,-0.60498 0.45703,-1.00195 0.78223,-1.53369c0.57275,-0.8042 3.29443,-2.90332 4.1748,-3.75146c4.86621,-4.68457 9.12598,-9.79834 12.9126,-15.38818c1.13525,-1.67432 2.18701,-3.44678 3.35303,-5.08301c-0.28857,2.51221 -8.98389,13.12939 -11.0918,15.50098c2.35693,-1.59375 3.5332,-3.48486 6.64307,-4.58643c0.66943,-0.2373 1.86768,-2.8374 4.3667,-3.97559l0.39551,0.11279c0.14355,-0.07617 0.85693,-0.80127 1.021,-0.96094z" fill="#c2dc1c"/><path d="M269.18848,148.54248l0.38525,3.69434l0.00732,0.29004c0.06299,1.84131 0.55811,3.86426 0.66211,5.72607c0.30176,5.34229 0.05127,10.24365 -0.62549,15.52734c-0.35449,2.76709 -0.2915,4.65381 -0.91699,7.57764c-0.04541,-0.60498 0.03369,-0.95068 -0.28418,-1.37695c-0.30908,0.09375 -0.33105,0.11133 -0.61377,0.27393c-0.81738,-0.89648 1.35938,-8.80371 0.44238,-11.10645l-0.24023,-0.10107c-0.36328,0.28418 -0.46729,0.38818 -0.50537,0.89355c-0.16699,2.1958 -1.1499,10.35205 -1.97754,11.75244c0.10107,-1.77832 0.76465,-4.15283 1.06641,-5.96045c0.31055,-1.87061 0.46582,-3.58594 0.58594,-5.47412c0.28418,-1.02979 0.73975,-2.21045 0.90674,-3.25049c0.40576,-2.53711 0.34863,-5.41699 0.28711,-7.9834c0.18164,-1.48389 0.01904,-7.97754 -0.03809,-9.6167c0.32666,-0.40137 0.47314,-0.54492 0.8584,-0.86572z" fill="#89ea2c"/><path d="M267.17432,170.25879c-0.24609,-1.20264 -0.1084,-6.64893 0.31787,-7.72412c0.14355,0.38086 0.06445,0.26807 0.31494,0.57275c0.7749,-0.86133 0.09082,-2.36426 0.56104,-4.08252c0.06152,2.56641 0.11865,5.44629 -0.28711,7.9834c-0.16699,1.04004 -0.62256,2.2207 -0.90674,3.25049z" fill="#c2dc1c"/><path d="M254.31299,170.30566c0.53906,1.21729 0.3252,6.07324 0.18164,7.56885l-0.16553,-0.06592c-0.16406,-1.11621 -0.08643,-6.27686 -0.01611,-7.50293z" fill="#feca20"/><path d="M246.16699,226.3125c-0.00732,0.54932 -0.13916,0.66064 -0.479,1.07959l-0.09375,0.11426c0.47168,-0.02051 1.1748,-0.92139 1.72412,-1.06787c0.70752,-0.18896 0.62256,-1.88086 1.18066,-2.37744c0.92432,-0.82471 2.03906,-1.63916 2.80957,-2.67041c0.27393,-0.36768 0.49512,-1.79297 0.95947,-2.06836c1.32861,-0.78516 3.11426,-1.95557 4.50879,-2.68945c0.0542,-0.02783 0.63281,0.24316 0.89795,-0.01025c0.87158,-0.8291 0.73828,-2.15771 1.81055,-2.79492c-1.94092,4.83398 -5.29102,11.49023 -8.1958,15.8584c-4.60693,8.04346 -12.24902,17.02588 -18.90381,23.43311c-4.39893,4.11182 -8.52539,7.8999 -13.47363,11.47998c-15.38086,11.12402 -33.27539,18.79541 -52.08105,21.60645c-6.7207,1.00488 -16.25537,1.23779 -23.13999,1.01367c-7.29419,-0.2373 -19.47144,-1.89697 -26.23594,-4.38721c-1.69409,-0.37207 -4.02114,-1.22021 -5.70645,-1.79443c-0.85181,-0.28418 -1.19868,-0.41309 -2.01284,-0.81006c1.06729,-1.02686 1.75151,-1.77832 2.71699,-2.90625c0.40488,-0.59033 2.00654,-2.50635 2.57637,-2.88867c1.44683,-2.41113 3.74634,-4.73437 5.36733,-7.25684c1.2624,-1.96436 2.68008,-5.50342 4.30239,-7.06494c0.3063,-0.2959 1.45649,0.1084 1.89888,0.2373c1.36538,0.11865 3.15527,0.63574 4.52827,0.87158c15.38467,2.64697 30.77578,0.68408 45.44033,-4.42676c2.22803,-0.77637 4.56592,-1.95703 6.76318,-2.68066l0.19629,-0.06445c0.57861,0.02197 0.65039,-0.03662 1.12354,-0.36914l0.29443,0.05127c0.37061,0.97705 -0.77637,2.20166 0.22998,2.69824c1.58643,0.78369 5.80518,-0.02051 6.22705,2.11963c0.90967,-0.73389 2.10498,-1.18506 3.07324,-1.86035c4.28467,-2.98535 8.64111,-5.91357 12.59033,-9.34277c1.52344,-1.32275 3.03516,-2.6748 4.44141,-4.12061c1.20264,-1.23779 7.29639,-8.15039 7.85156,-8.4375l0.12158,0.08936c-0.28711,0.57861 -0.80273,1.05469 -1.25391,1.53369c2.38037,0.20215 5.52979,-1.37842 7.52344,-2.65283c1.27588,-0.81738 2.03174,-1.99365 3.53613,-2.39648l0.16113,-0.04541c1.0415,-0.27832 1.4165,-2.42139 2.68945,-3.07031c-1.11328,1.92188 -3.07471,4.57471 -4.41797,6.36328c-11.45068,15.06885 -26.91064,26.60889 -44.61182,33.30469c-2.16797,0.80127 -5.79785,2.2207 -8.02295,2.6001c-2.5752,0.91553 -10.23926,3.06738 -12.79687,3.20508l-0.52002,0.13916c1.35645,0.72217 7.15576,-0.21973 8.78174,-0.50977c10.51318,-1.87793 22.19531,-4.70068 31.33154,-10.41943c3.94775,-2.38184 7.78125,-5.08301 11.6499,-7.59961c1.6875,-1.09717 3.20654,-2.4873 4.86621,-3.63721c-0.3252,0.53174 -0.62402,0.92871 -0.78223,1.53369c0.61816,0.74854 0.67676,0.08057 1.53369,0.07617c1.00635,-0.76172 3.73975,-2.9458 4.67139,-3.44385c2.56055,-2.46387 7.15137,-5.82422 9.33838,-8.53857c0.54785,-0.35303 1.75342,-1.67578 2.27783,-2.19434c3.98145,-3.94482 7.33594,-8.35986 10.73291,-12.81152z" fill="url(#color-7)"/><path d="M183.52588,254.04785c0.57861,0.02197 0.65039,-0.03662 1.12354,-0.36914l0.29443,0.05127c0.37061,0.97705 -0.77637,2.20166 0.22998,2.69824c1.58643,0.78369 5.80518,-0.02051 6.22705,2.11963c-0.87158,0.26221 -2.39062,1.64063 -3.4585,2.20898l-0.12012,0.23438c-0.77051,0.76904 -4.68896,2.46973 -5.84912,3.01172c-11.32471,5.29248 -23.87549,9.58008 -36.49702,9.49512c-7.09658,-0.04834 -18.23247,-1.00049 -24.79277,-4.03418c-0.46348,-0.63867 0.30132,-0.83936 0.22573,-1.55566c-0.90952,1.1543 -4.67505,6.51855 -5.87988,6.52441c1.44683,-2.41113 3.74634,-4.73437 5.36733,-7.25684c1.2624,-1.96436 2.68008,-5.50342 4.30239,-7.06494c0.3063,-0.2959 1.45649,0.1084 1.89888,0.2373c1.36538,0.11865 3.15527,0.63574 4.52827,0.87158c15.38467,2.64697 30.77578,0.68408 45.44033,-4.42676c2.22803,-0.77637 4.56592,-1.95703 6.76318,-2.68066z" fill="#33cd6a"/><path d="M115.0292,274.43262c1.44683,-2.41113 3.74634,-4.73437 5.36733,-7.25684c1.2624,-1.96436 2.68008,-5.50342 4.30239,-7.06494c0.3063,-0.2959 1.45649,0.1084 1.89888,0.2373l-0.11147,0.31201c-0.3769,-0.01465 -0.50127,-0.04687 -0.87393,-0.12598c-0.37441,0.26953 -0.22207,0.09521 -0.39434,0.59912c0.41177,0.15674 0.29473,0.09814 0.78105,0.07471l0.07881,0.19629c-0.50142,0.01318 -1.18286,-0.08789 -1.3938,0.29883c-0.78398,1.44141 -3.25635,4.99805 -3.77505,6.20508c-0.90952,1.1543 -4.67505,6.51855 -5.87988,6.52441z" fill="url(#color-8)"/><path d="M218.2251,236.40967c2.38037,0.20215 5.52979,-1.37842 7.52344,-2.65283c1.27588,-0.81738 2.03174,-1.99365 3.53613,-2.39648l0.16113,-0.04541c1.0415,-0.27832 1.4165,-2.42139 2.68945,-3.07031c-1.11328,1.92188 -3.07471,4.57471 -4.41797,6.36328c-11.45068,15.06885 -26.91064,26.60889 -44.61182,33.30469c-2.16797,0.80127 -5.79785,2.2207 -8.02295,2.6001c-1.08984,-0.04834 -1.91162,0.48193 -2.77881,0.44238c0.29443,-0.19922 2.10645,-0.5918 2.74658,-0.79541c3.10547,-0.98437 10.44287,-3.07324 12.91699,-4.9834c0.81592,-0.27832 5.17969,-2.30713 5.6499,-2.88574l-0.25928,-0.17285c0.20068,-0.22412 4.15576,-2.34229 4.81201,-2.66162c2.66895,-1.29639 16.71387,-11.16211 17.25586,-13.1543c-0.67676,0.06299 -0.74268,0.66064 -1.46191,0.86279c-0.74414,0.26074 -3.31201,1.12646 -3.78955,1.56592c-2.61328,2.40527 -5.34082,1.55713 -8.16943,3.0249c-0.97852,0.45264 -2.53125,2.26611 -3.35742,2.66016c-2.77148,1.32568 -8.12402,5.92383 -10.8252,6.57568l0.12012,-0.23437c1.06787,-0.56836 2.58691,-1.94678 3.4585,-2.20898c0.90967,-0.73389 2.10498,-1.18506 3.07324,-1.86035c4.28467,-2.98535 8.64111,-5.91357 12.59033,-9.34277c1.52344,-1.32275 3.03516,-2.6748 4.44141,-4.12061c1.20264,-1.23779 7.29639,-8.15039 7.85156,-8.4375l0.12158,0.08936c-0.28711,0.57861 -0.80273,1.05469 -1.25391,1.53369z" fill="url(#color-9)"/><path d="M226.875,256.72705l0.2666,0.25781c0.77051,-0.05566 4.42822,-3.45117 5.10498,-4.17334l0.13916,0.30762c-4.39893,4.11182 -8.52539,7.8999 -13.47363,11.47998c-15.38086,11.12402 -33.27539,18.79541 -52.08105,21.60645c-6.7207,1.00488 -16.25537,1.23779 -23.13999,1.01367c-7.29419,-0.2373 -19.47144,-1.89697 -26.23594,-4.38721c0.98804,-0.69873 6.25444,0.81592 7.73994,1.11914c4.75942,0.97266 9.14736,1.4165 13.95483,1.84424c4.69336,0.41748 9.23291,1.03418 14.00098,0.64893c2.54443,-0.17725 4.93066,-0.47168 7.46777,-0.74121c24.57861,-2.4668 47.7583,-12.60352 66.25635,-28.97607z" fill="#366263"/><path d="M246.16699,226.3125c-0.00732,0.54932 -0.13916,0.66064 -0.479,1.07959l-0.09375,0.11426c0.47168,-0.02051 1.1748,-0.92139 1.72412,-1.06787c0.70752,-0.18896 0.62256,-1.88086 1.18066,-2.37744c0.92432,-0.82471 2.03906,-1.63916 2.80957,-2.67041c0.27393,-0.36768 0.49512,-1.79297 0.95947,-2.06836c1.32861,-0.78516 3.11426,-1.95557 4.50879,-2.68945c0.0542,-0.02783 0.63281,0.24316 0.89795,-0.01025c0.87158,-0.8291 0.73828,-2.15771 1.81055,-2.79492c-1.94092,4.83398 -5.29102,11.49023 -8.1958,15.8584c0.16846,-2.39795 3.9082,-6.44824 4.34033,-8.60742c-1.13086,0.08789 -6.5127,7.03564 -7.72705,8.22949c-0.86279,0.84814 -1.95557,1.58203 -2.84473,2.41846c-2.66895,2.30859 -5.24561,4.99072 -8.24268,6.85547c-0.7002,0.43359 -1.38281,1.51318 -1.90869,1.93945c-2.04639,1.65967 -8.88428,9.00146 -11.08887,9.33545c2.56055,-2.46387 7.15137,-5.82422 9.33838,-8.53857c0.54785,-0.35303 1.75342,-1.67578 2.27783,-2.19434c3.98145,-3.94482 7.33594,-8.35986 10.73291,-12.81152z" fill="#33cd6a"/><path d="M201.87891,262.92773c3.94775,-2.38184 7.78125,-5.08301 11.6499,-7.59961c1.6875,-1.09717 3.20654,-2.4873 4.86621,-3.63721c-0.3252,0.53174 -0.62402,0.92871 -0.78223,1.53369c0.61816,0.74854 0.67676,0.08057 1.53369,0.07617c-2.01855,2.04199 -12.44385,8.69385 -15.60937,10.12061c-0.13037,0.05859 -1.35791,-0.39258 -1.6582,-0.49365z" fill="#5fae57"/><path d="M226.875,256.72705c0.48779,-0.50684 1.41357,-1.32715 1.97461,-1.76367c3.3501,-2.61035 6.13916,-6.46289 9.30029,-9.11279l-0.03955,0.09668c1.69775,-1.22021 1.92188,-1.99219 3.15967,-3.23291c-0.85986,1.86768 -7.28027,8.3042 -9.02344,10.09717c-0.67676,0.72217 -4.33447,4.11768 -5.10498,4.17334z" fill="#358977"/><path d="M112.45283,277.32129c-0.15322,1.21582 -0.2376,2.5415 -0.69126,3.65186c-0.00425,0.02197 -0.00864,0.04248 -0.01289,0.06445c-0.85181,-0.28418 -1.19868,-0.41309 -2.01284,-0.81006c1.06729,-1.02686 1.75151,-1.77832 2.71699,-2.90625z" fill="#29449c"/><path d="M193.35791,262.11768l0.25928,0.17285c-0.47021,0.57861 -4.83398,2.60742 -5.6499,2.88574c-0.75586,-0.14648 -1.78418,0.80566 -2.46533,0.60205c2.69531,-1.00635 5.32617,-2.29248 7.85596,-3.66064z" fill="#44975b"/><path d="M158.35254,273.86279c1.04736,-0.13037 2.91064,-0.39111 3.93311,-0.14502l-0.52002,0.13916c-1.33301,0.37061 -2.08594,0.26367 -3.41309,0.00586z" fill="#5ce2ef"/><path d="M240.14209,146.52832c-1.16748,-5.66646 -2.20752,-11.17002 -4.42383,-16.52637c-0.34131,-0.82544 -0.5874,-2.16548 -0.76172,-3.05391c3.35449,4.32495 6.52295,14.30728 8.37305,19.57588l0.17432,0.89648c2.16797,5.55029 3.40137,16.20703 3.78076,22.19531c0.12891,4.13086 0.14355,9.5625 -0.16699,13.6875c-1.07373,12.87451 -4.58936,25.42529 -10.36084,36.98291c-0.58301,1.16455 -3.90381,7.4502 -4.62158,7.9585c-1.27295,0.64893 -1.64795,2.79199 -2.68945,3.07031l-0.16113,0.04541c-1.50439,0.40283 -2.26025,1.5791 -3.53613,2.39648c-1.99365,1.27441 -5.14307,2.85498 -7.52344,2.65283c0.45117,-0.479 0.9668,-0.95508 1.25391,-1.53369l-0.12158,-0.08936c-0.55518,0.28711 -6.64893,7.19971 -7.85156,8.4375c-1.40625,1.4458 -2.91797,2.79785 -4.44141,4.12061c-3.94922,3.4292 -8.30566,6.35742 -12.59033,9.34277c-0.96826,0.67529 -2.16357,1.12646 -3.07324,1.86035c-0.42187,-2.14014 -4.64062,-1.33594 -6.22705,-2.11963c-1.00635,-0.49658 0.14063,-1.72119 -0.22998,-2.69824l-0.29443,-0.05127c-0.47314,0.33252 -0.54492,0.39111 -1.12354,0.36914c0.66064,-0.43652 2.24268,-1.18066 2.97656,-1.52783c34.58643,-16.32129 55.47656,-51.6709 55.33447,-89.63525c-0.02197,-5.70557 -1.01074,-10.74756 -1.69482,-16.35645z" fill="#43da2b"/><path d="M240.14209,146.52832c-1.16748,-5.66646 -2.20752,-11.17002 -4.42383,-16.52637c-0.34131,-0.82544 -0.5874,-2.16548 -0.76172,-3.05391c3.35449,4.32495 6.52295,14.30728 8.37305,19.57588l0.17432,0.89648c-0.67969,-0.66211 -1.53516,-4.31558 -1.98193,-5.39341c-1.00928,-2.4353 -2.06104,-6.25591 -3.44824,-8.40718l-0.17139,-0.01567c-0.33398,2.92705 2.80371,10.80308 2.23975,12.92417z" fill="#89ea2c"/><path d="M171.6167,168.95215c-0.06006,-0.30469 -0.11572,-0.60937 -0.16846,-0.91406c-0.2168,-1.29053 -0.10547,-4.92187 1.59814,-5.13135c2.02002,0.68701 2.94873,3.49512 3.68115,3.9873c0.39844,-0.22119 0.72363,-0.42187 1.11035,-0.66797c0.68555,-0.88916 1.29639,-1.31689 2.22949,-1.87793l0.34424,-0.14355c0.79834,-0.34424 0.94482,-0.375 1.80908,-0.49219l0.09814,0.17725c0.31494,0.96094 0.14795,2.28516 -0.104,3.25635c-0.00879,1.0957 -0.57422,2.3335 -0.90381,3.41016c0.75732,0.08936 1.81201,0.1875 2.52686,0.4043c4.07227,1.23779 8.66309,5.82568 8.65869,10.29346c0.19482,0.80566 0.07471,1.57617 0.10693,2.3833c0.10254,2.53125 -0.2666,4.68457 -1.67139,6.84229c-4.16309,6.39551 -12.60645,9.23438 -19.23047,4.73584c-0.45264,-0.30762 -0.76318,-0.51855 -1.18066,-0.89795c-0.81299,-0.44531 -2.68213,-2.67773 -3.03369,-3.59473c-1.00635,-1.31689 -1.94971,-4.48975 -2.06104,-6.11865c-0.271,-3.94336 1.42822,-7.37256 3.81738,-10.30225l0.19043,-0.3208c-0.09668,-0.47607 -0.3457,-0.4834 -0.89355,-0.86133c-1.7373,-0.99023 -2.74072,-2.10498 -3.70605,-3.80859c0.77783,-0.09375 0.94482,-0.10107 1.66699,-0.36182c1.78125,-0.63574 3.32959,-0.35156 5.11523,0.00293zM185.70117,181.00195c3.4585,-1.86035 1.18799,-6.18311 -2.63232,-5.79199c-3.18164,2.61768 -0.56104,6.19336 2.63232,5.79199z" fill="#1744e1"/><path d="M167.4873,190.72266c-1.00635,-1.31689 -1.94971,-4.48975 -2.06104,-6.11865c-0.271,-3.94336 1.42822,-7.37256 3.81738,-10.30225c0.18457,1.48096 -1.67285,3.54639 -2.0127,4.87354c-1.32129,5.16504 -0.67822,9.61377 3.35596,13.33301c2.77441,2.55615 4.59521,3.30469 8.44336,3.20654c3.03516,-0.10693 4.78857,-0.19775 7.18213,-2.22803c0.30615,-0.25928 1.10596,-0.88916 1.47949,-0.99023c2.36426,-2.37598 3.37793,-4.29346 4.14111,-7.6333c-0.02051,-1.71533 0.05859,-5.09619 -1.07959,-6.49219c0.44385,0.74121 1.06494,1.98486 1.18799,2.82275l0.2124,0.06885c0.104,-0.62109 -0.94043,-2.2998 -0.75879,-3.01172c0.03223,0.13916 1.00049,2.74072 1.10156,3.00293c0.19482,0.80566 0.07471,1.57617 0.10693,2.3833c0.10254,2.53125 -0.2666,4.68457 -1.67139,6.84229c-4.16309,6.39551 -12.60645,9.23438 -19.23047,4.73584c-0.45264,-0.30762 -0.76318,-0.51855 -1.18066,-0.89795c-0.81299,-0.44531 -2.68213,-2.67773 -3.03369,-3.59473z" fill="#1d217f"/><path d="M167.4873,190.72266c-0.16699,-0.55664 -0.41602,-1.14551 -0.31201,-1.69922l0.18604,-0.08789c1.67871,2.09912 3.10547,4.39746 5.69385,5.84619c0.94336,0.52734 2.3584,0.76318 3.30615,1.14551l-0.0249,0.14648c-3.35156,0.38086 -4.04736,-1.4707 -5.81543,-1.75635c-0.81299,-0.44531 -2.68213,-2.67773 -3.03369,-3.59473z" fill="#141551"/><path d="M164.83447,169.31104c0.77783,-0.09375 0.94482,-0.10107 1.66699,-0.36182c0.89063,0.25928 2.24121,0.18311 3.20068,0.18311c-0.42773,0.4043 -1.24365,0.00732 -1.4707,0.3501l0.17139,0.14209l0.94043,-0.12158c-0.39404,1.27734 -2.27344,1.25537 -0.80273,3.6167c-1.7373,-0.99023 -2.74072,-2.10498 -3.70605,-3.80859z" fill="#29449c"/><path d="M182.2207,163.7124l0.09814,0.17725c0.31494,0.96094 0.14795,2.28516 -0.104,3.25635c-0.28271,-0.29004 -0.25049,-0.49512 -0.2915,-0.88037l-0.14648,-0.06738c-0.52734,0.24756 -0.78809,0.47754 -1.30371,0.15527c-0.31787,-0.71338 -0.35449,-0.88623 -1.03711,-1.23486c-0.57568,0.48047 -0.90381,0.81445 -1.59814,1.10742c0.68555,-0.88916 1.29639,-1.31689 2.22949,-1.87793l0.34424,-0.14355c0.79834,-0.34424 0.94482,-0.375 1.80908,-0.49219z" fill="#29449c"/><path d="M180.41162,164.20459c0.79834,-0.34424 0.94482,-0.375 1.80908,-0.49219c-0.17139,0.74414 -0.01904,0.6123 -0.49805,0.98291c-0.53906,0.03516 -0.88916,-0.15381 -1.31104,-0.49072z" fill="#1d217f"/><path d="M220.64795,167.23242c-1.35791,2.26172 -2.28516,3.53467 -4.55273,5.26611c-3.1333,2.55322 -9.58594,5.54004 -13.66846,5.10352c-4.35645,-0.46729 -6.21973,-10.93799 -6.53174,-14.51807c-0.09668,-1.10449 0.17432,-2.6499 0.33545,-3.69434c1.99219,-12.92871 17.27197,-14.50327 24.1626,-4.08252c2.30713,4.71094 1.72266,7.14111 0.25488,11.92529z" fill="url(#color-10)"/><path d="M215.97803,180.49951c1.32568,1.22461 2.21338,2.58545 3.10693,4.14404c6.73535,11.73486 4.93213,27.06592 -3.48926,37.45605c-1.72412,2.05225 -4.53662,4.97754 -6.81738,6.37354l-0.08496,-0.2373c0.35156,-0.6123 0.8335,-0.40283 1.19971,-1.11475l-0.19336,-0.46875c-1.43408,1.05322 -2.5459,1.88965 -4.17187,2.62939c0.19189,-0.42187 0.92725,-0.66943 1.47803,-1.12354c0.2666,-0.50977 0.21533,-0.67969 0.19482,-1.24951c-0.38818,-0.36328 -0.70166,-0.18457 -1.45312,-0.2417l-0.05859,-0.13184c-0.43652,-0.9873 -0.40869,-0.9082 -1.29199,-1.25098c11.75244,-6.74707 16.9043,-22.86328 11.73486,-35.15771c-0.61963,-1.4707 -3.11426,-5.15918 -3.31055,-6.11133c0.36182,-1.0415 2.28516,-2.68213 3.15674,-3.51562z" fill="url(#color-11)"/><path d="M209.69971,226.65234c0.40576,-0.5625 4.32275,-4.05176 5.06396,-4.72559c0.3999,0.00293 0.44531,0.04541 0.83203,0.17285c-1.72412,2.05225 -4.53662,4.97754 -6.81738,6.37354l-0.08496,-0.2373c0.35156,-0.6123 0.8335,-0.40283 1.19971,-1.11475z" fill="#5fae57"/><path d="M163.85596,229.48682c1.1001,0.76172 3.42188,2.49023 4.33008,3.36768c-0.49219,1.32715 -1.11035,2.60596 -1.84424,3.81738c-3.76172,6.5625 -7.89111,10.59814 -14.44629,14.31738c-0.76904,0.37793 -1.54395,0.74268 -2.32617,1.09277c-5.66909,2.49023 -11.96411,3.12012 -18.02373,2.2251c-1.05205,-0.15527 -2.56113,-0.17139 -3.48984,-0.53174c-0.36958,-0.89209 1.07651,-4.28467 1.90444,-4.68018c1.771,0.79248 9.08071,0.57275 11.14131,0.24902c1.48096,-0.24609 2.93672,-0.62402 4.34985,-1.12939c7.18828,-2.51953 13.4168,-8.19727 16.64971,-15.06006c0.57715,-1.22607 1.17041,-2.44482 1.75488,-3.66797z" fill="url(#color-12)"/><path d="M164.98535,223.46045c1.18799,-1.13086 2.8125,-2.25586 4.125,-3.39844c0.89209,0.89355 1.60547,1.78418 2.59277,2.65137c3.06738,2.70117 7.33887,4.96582 11.3335,5.90039c8.06982,1.88965 14.32471,0.82178 21.36035,-3.32959c0.8833,0.34277 0.85547,0.26367 1.29199,1.25098l0.05859,0.13184c0.75146,0.05713 1.06494,-0.12158 1.45313,0.2417c0.02051,0.56982 0.07178,0.73975 -0.19482,1.24951c-0.55078,0.4541 -1.28613,0.70166 -1.47803,1.12354c1.62598,-0.73975 2.73779,-1.57617 4.17188,-2.62939l0.19336,0.46875c-0.36621,0.71191 -0.84814,0.50244 -1.19971,1.11475l0.08496,0.2373c-0.93896,0.87012 -2.76562,1.85889 -3.9375,2.45801c-5.29834,2.71582 -10.75488,3.64746 -16.67871,3.41309c-0.57568,-0.0249 -1.15283,-0.05859 -1.72705,-0.10107c-1.85303,-0.11133 -2.83887,-0.27832 -4.62451,-0.7749l-1.96875,-0.47754c-0.66357,-0.37207 -3.08789,-1.1001 -4.09131,-1.57324c-4.42676,-2.08447 -7.33154,-4.60547 -10.76514,-7.95703z" fill="#33cd6a"/><path d="M209.69971,226.65234l0.19336,0.46875c-0.36621,0.71191 -0.84814,0.50244 -1.19971,1.11475l0.08496,0.2373c-0.93896,0.87012 -2.76562,1.85889 -3.9375,2.45801c-5.29834,2.71582 -10.75488,3.64746 -16.67871,3.41309c-0.57568,-0.0249 -1.15283,-0.05859 -1.72705,-0.10107c-1.85303,-0.11133 -2.83887,-0.27832 -4.62451,-0.7749c0.42773,-0.76611 2.62939,-0.29443 3.65332,-0.19629c6.61963,0.64307 14.27637,-0.65332 20.06396,-3.99023c1.62598,-0.73975 2.73779,-1.57617 4.17188,-2.62939z" fill="#44975b"/><path d="M140.19976,223.26416c2.93511,0.19482 16.61616,3.51123 18.5981,5.13721c0.49951,0.41016 0.71338,0.854 0.74561,1.50146c0.12891,2.58398 -2.38037,5.61768 -3.95361,7.45313c-1.02539,1.11768 -2.19434,2.24854 -3.48926,3.0498c-0.62109,0.38232 -1.62744,0.90527 -2.38184,0.61523c-1.75635,-0.67529 -8.52129,-13.66846 -9.46538,-16.08691c-0.25693,-0.65918 -0.34409,-1.01074 -0.05361,-1.66992z" fill="#feca20"/><path d="M159.99756,224.50342c-2.64258,-0.27246 -16.65879,-3.35596 -18.81328,-4.27295c-0.16787,-0.3252 -0.19204,-0.82617 -0.02856,-1.16895c0.54375,-1.13672 14.60405,-9.65918 16.60503,-10.35937c2.70557,0.15967 3.71631,6.42627 4.03418,8.40381c0.17725,1.94678 -0.35156,5.99561 -1.79736,7.39746z" fill="#fce914"/><path d="M191.23096,205.51025c1.7666,0.52295 4.05762,4.05469 5.29541,5.68213c2.31445,3.04102 5.44189,6.24902 7.29492,9.54492c-0.97852,1.82373 -2.07861,2.68359 -3.81006,3.67236c-1.74609,0.86426 -9.7207,3.78662 -10.78418,0.37207c-0.22559,-0.72363 -0.02197,-5.35547 0.17285,-6.15234c0.4834,-1.95703 1.07959,-12.0791 1.83105,-13.11914z" fill="#89ea2c"/><path d="M194.09619,203.18408c3.18896,-0.24756 6.95361,0.33398 10.17773,0.55078c1.92627,0.12891 7.62012,0.25635 9.0542,1.40771c2.29248,1.84131 -1.06934,8.11523 -2.42285,9.97119c-0.79102,1.1543 -2.28662,3.08789 -3.68701,3.4248c-0.35303,0.08496 -0.59033,0.06738 -0.90234,-0.12598c-1.63037,-1.01074 -10.32568,-11.83447 -11.71729,-13.99805c-0.26221,-0.40869 -0.3999,-0.75586 -0.50244,-1.23047z" fill="#89ea2c"/><path d="M145.6144,187.5791c2.10483,0.21826 4.94077,1.68896 6.77329,2.69824c9.76465,5.38477 14.32031,11.69824 17.36426,22.21729c-0.71631,1.07813 -1.51758,1.67139 -2.52832,2.44482l-1.9585,1.35645c-0.5918,-2.69385 -0.69873,-4.04883 -1.80029,-6.85547c-2.63086,-6.61523 -7.61865,-12.02197 -14.00098,-15.17578c-1.87354,-0.94336 -3.5228,-1.38281 -5.3937,-2.19727c0.14385,-1.5293 0.38774,-3.48047 1.54424,-4.48828z" fill="#fce914"/><path d="M187.10156,205.78711c0.69873,0.09521 0.53174,-0.02783 0.98877,0.37207c0.42188,1.21289 -1.27734,10.12646 -1.37256,12.21387c-0.40723,8.8623 -4.04736,7.89844 -10.24951,4.30518c-2.04492,-1.2627 -3.23291,-2.04785 -4.19678,-4.29053c0.33984,-0.57861 0.91846,-1.4502 1.44727,-1.86621c4.46631,-3.51416 8.96924,-7.17041 13.38281,-10.73437z" fill="#89ea2c"/><path d="M195.1084,200.46826c-0.05566,-0.19189 -0.22119,-0.87012 -0.13477,-0.9668c2.47852,-2.74951 12.65625,-11.23535 15.0835,-12.65625l0.11572,0.08203c2.62939,1.83252 3.31055,4.53516 4.16748,7.49121c0.40723,1.9541 0.68115,3.66504 0.35596,5.66162c-0.59619,0.61084 -0.78809,0.83643 -1.54248,1.29199c-3.0249,0.08057 -6.28271,-0.28564 -9.32227,-0.49658c-2.85205,-0.19922 -5.92676,-0.15088 -8.72314,-0.40723z" fill="#89ea2c"/><path d="M144.06401,195.87451c3.19087,0.646 11.52437,4.99365 11.27681,8.78906c-0.13623,2.06982 -7.24365,6.08789 -9.07632,7.32422c-1.0166,0.66211 -5.84854,4.43555 -6.62197,4.21436c-0.14648,-0.45264 -0.16846,-1.08545 -0.07441,-1.54541c1.15078,-5.61475 2.29131,-11.23096 3.67529,-16.79443c0.13975,-0.5625 0.5792,-1.45312 0.82061,-1.98779z" fill="#fce914"/><path d="M136.73525,225.50977l0.56353,0.15234c1.48623,1.22314 6.8729,13.18213 8.12227,15.52295c1.68882,3.1626 -2.91006,4.30371 -5.3625,4.88672c-2.14629,0.12012 -7.3437,0.78369 -8.72183,-0.92285c0.21445,-1.79736 1.26489,-3.91113 1.72266,-5.59277c0.62959,-2.31445 1.27588,-4.64062 1.90327,-6.95068l1.23589,-4.72852c0.25708,-1.01514 0.04746,-1.43262 0.53672,-2.36719z" fill="#feaa24"/><path d="M215.87988,139.77026c2.85352,-3.71543 10.65674,-5.26685 14.80811,-3.43242c-1.69922,3.17432 -1.27881,5.37539 -4.67578,7.87485c-0.27979,0.23613 -0.73682,0.6501 -1.02979,0.82002c-3.12744,2.23828 -7.56445,3.18457 -11.26318,1.96729c-0.23145,-0.07471 -0.40869,-0.17871 -0.62842,-0.28711c-0.30469,-0.54302 -0.20801,-0.24683 -0.19043,-0.95098c0.20215,-1.77891 1.63916,-4.7127 2.97949,-5.99165z" fill="#43da2b"/><path d="M215.87988,139.77026c-0.25342,0.90439 -1.04883,1.89551 -1.5249,2.80605c-0.57715,1.10874 -0.88477,1.94048 -1.31104,3.10327c1.46924,0.01802 2.81982,0.12158 4.29639,0.10972c1.19385,-0.00967 2.86377,-0.21709 3.98145,-0.13228l-0.12012,0.0876l0.02783,0.11968c1.24951,0.0561 2.94873,-0.88096 3.75293,-0.83159c-3.12744,2.23828 -7.56445,3.18457 -11.26318,1.96729c-0.23145,-0.07471 -0.40869,-0.17871 -0.62842,-0.28711c-0.30469,-0.54302 -0.20801,-0.24683 -0.19043,-0.95098c0.20215,-1.77891 1.63916,-4.7127 2.97949,-5.99165z" fill="#33cd6a"/><path d="M212.90039,145.76191c0.55811,0.08306 1.11621,0.173 1.67285,0.26982l0.03809,0.26206l0.44824,-0.18164l0.02783,0.02256c-0.49512,0.40825 -0.95215,0.37749 -1.36816,0.86528c-0.23145,-0.07471 -0.40869,-0.17871 -0.62842,-0.28711c-0.30469,-0.54302 -0.20801,-0.24683 -0.19043,-0.95098z" fill="#5fae57"/><path d="M221.32178,145.65703c1.40918,-0.30718 2.21631,-0.82632 3.49512,-1.42104c0.69287,-0.32256 0.57861,-0.24741 1.19531,-0.02329c-0.27979,0.23613 -0.73682,0.6501 -1.02979,0.82002c-0.8042,-0.04937 -2.50342,0.8877 -3.75293,0.83159l-0.02783,-0.11968z" fill="#5fae57"/><path d="M70.76367,41.82202c2.79272,-1.83252 8.55688,-4.09995 11.70747,-5.29482c12.74238,-4.83252 25.27881,-7.72559 38.84604,-8.74277l0.13887,0.21445c-0.91978,0.00278 -2.13076,0.24346 -3.12627,0.31099c-3.86719,0.26191 -7.40859,0.86792 -11.19771,1.62686c-1.00591,0.20142 -3.74121,0.76992 -4.64473,0.85107l-0.0189,0.3416c-0.623,0.39375 -0.89224,0.16758 -1.49985,0.19497c-1.34634,0.06079 -2.42607,1.50659 -3.59502,0.70166c-0.29165,0.0501 -0.45322,0.04175 -0.69565,0.17095c-6.94351,2.30479 -14.30684,4.17642 -20.93745,7.45723c-0.76333,0.37764 -4.32495,2.24194 -4.97681,2.16782z" fill-opacity="0.98824" fill="#89ea2c"/></g></svg></svg>